<svg version="1.2" xmlns="http://www.w3.org/2000/svg" viewBox="0 0 651 576" width="651" height="576">
	<title>ai-framework-svg</title>
	<defs>
		<clipPath clipPathUnits="userSpaceOnUse" id="cp1">
			<path d="m93 18h540v540h-540z"/>
		</clipPath>
		<clipPath clipPathUnits="userSpaceOnUse" id="cp2">
			<path d="m245.59-74.82l480.06 245.59-245.59 480.06-480.06-245.59z"/>
		</clipPath>
		<clipPath clipPathUnits="userSpaceOnUse" id="cp3">
			<path d="m485.62 47.97c-132.57-67.82-295.01-15.33-362.83 117.24-67.82 132.56-15.33 295 117.24 362.83 132.56 67.81 295.01 15.32 362.83-117.24 67.82-132.57 15.33-295.01-117.24-362.83z"/>
		</clipPath>
		<clipPath clipPathUnits="userSpaceOnUse" id="cp4">
			<path d="m25 171h275v229h-275z"/>
		</clipPath>
		<clipPath clipPathUnits="userSpaceOnUse" id="cp5">
			<path d="m146.89 125.62l152.84 167.16-167.16 152.84-152.84-167.16z"/>
		</clipPath>
		<clipPath clipPathUnits="userSpaceOnUse" id="cp6">
			<path d="m146.89 125.62l152.84 167.16-167.16 152.84-152.84-167.16z"/>
		</clipPath>
		<clipPath clipPathUnits="userSpaceOnUse" id="cp7">
			<path d="m307.11 236.18h116.25v103.5h-116.25z"/>
		</clipPath>
	</defs>
	<style>
		.s0 { fill: #f9f9f9 } 
		.s1 { fill: #4c5270 } 
		.s2 { fill: #d9e3ef } 
		.s3 { fill: none;stroke: #f9f9f9;stroke-width: 9.7 } 
		.s4 { fill: none;stroke: #f9f9f9;stroke-width: 9.8 } 
		.s5 { fill: #ebf1f7 } 
		.s6 { fill: #000000 } 
		.s7 { fill: #ffffff } 
	</style>
	<g id="Clip-Path" clip-path="url(#cp1)">
		<g id="Layer">
			<g id="Clip-Path" clip-path="url(#cp2)">
				<g id="Layer">
					<g id="Clip-Path" clip-path="url(#cp3)">
						<g id="Layer">
							<path id="Layer" class="s0" d="m245.6-74.8l480.1 245.6-245.6 480-480.1-245.6z"/>
						</g>
					</g>
				</g>
			</g>
		</g>
	</g>
	<path id="Layer" class="s1" d="m146 201.5q4.3-10.7 9.6-20.9 5.2-10.2 11.5-19.8 6.2-9.6 13.4-18.6 7.2-8.9 15.2-17.1 8-8.2 16.7-15.6 8.8-7.4 18.3-13.9 9.4-6.5 19.5-12 10-5.6 20.5-10.1l46.1 107.3q-5.3 2.2-10.3 5-5 2.8-9.8 6-4.7 3.2-9.1 6.9-4.4 3.7-8.4 7.8-4 4.1-7.5 8.6-3.6 4.5-6.7 9.3-3.2 4.8-5.8 9.9-2.6 5.1-4.8 10.4z"/>
	<path id="Layer" class="s2" d="m270.7 73.5q10.6-4.5 21.5-8 10.9-3.5 22.1-5.8 11.3-2.4 22.7-3.7 11.4-1.3 22.8-1.4 11.5-0.2 22.9 0.8 11.4 1 22.7 3.1 11.3 2.1 22.3 5.3 11 3.2 21.7 7.4l-43.3 108.4q-5.3-2.1-10.8-3.7-5.5-1.6-11.2-2.7-5.6-1-11.3-1.5-5.7-0.5-11.5-0.4-5.7 0.1-11.4 0.7-5.7 0.6-11.3 1.8-5.6 1.2-11.1 3-5.5 1.7-10.7 4z"/>
	<path id="Layer" class="s1" d="m449.4 71.2q10.6 4.3 20.8 9.5 10.2 5.3 19.8 11.6 9.6 6.2 18.6 13.4 8.9 7.1 17.1 15.1 8.3 8 15.6 16.8 7.4 8.8 13.9 18.2 6.5 9.5 12.1 19.5 5.5 10.1 10 20.6l-107.2 46q-2.3-5.2-5.1-10.2-2.7-5.1-6-9.8-3.2-4.7-6.9-9.1-3.7-4.4-7.8-8.4-4.1-4-8.6-7.6-4.5-3.5-9.3-6.7-4.8-3.1-9.9-5.7-5.1-2.7-10.4-4.8z"/>
	<path id="Layer" class="s2" d="m577.3 195.9q4.5 10.5 8 21.5 3.5 10.9 5.9 22.1 2.3 11.2 3.6 22.6 1.3 11.4 1.4 22.9 0.2 11.5-0.8 22.9-1 11.4-3.1 22.7-2.1 11.3-5.2 22.3-3.2 11-7.5 21.6l-108.4-43.2q2.1-5.4 3.7-10.9 1.6-5.5 2.7-11.1 1-5.6 1.5-11.4 0.5-5.7 0.4-11.4 0-5.7-0.7-11.4-0.6-5.7-1.8-11.3-1.2-5.7-2.9-11.1-1.8-5.5-4-10.8z"/>
	<path id="Layer" class="s1" d="m579.6 374.5q-4.2 10.7-9.5 20.9-5.3 10.2-11.5 19.8-6.3 9.6-13.4 18.5-7.2 9-15.2 17.2-8 8.2-16.8 15.6-8.7 7.4-18.2 13.9-9.5 6.5-19.5 12-10 5.6-20.6 10.1l-46-107.3q5.2-2.2 10.3-5 5-2.8 9.7-6 4.7-3.2 9.1-6.9 4.4-3.7 8.4-7.8 4-4.2 7.6-8.6 3.6-4.5 6.7-9.3 3.1-4.8 5.8-9.9 2.6-5.1 4.7-10.4z"/>
	<path id="Layer" class="s2" d="m454.9 502.5q-10.5 4.5-21.4 8-11 3.4-22.2 5.8-11.2 2.4-22.6 3.7-11.4 1.3-22.9 1.4-11.4 0.1-22.9-0.8-11.4-1-22.7-3.1-11.2-2.1-22.2-5.3-11.1-3.2-21.7-7.4l43.3-108.4q5.3 2.1 10.8 3.7 5.5 1.6 11.1 2.7 5.7 1 11.4 1.5 5.7 0.5 11.4 0.4 5.8-0.1 11.5-0.7 5.7-0.6 11.3-1.8 5.6-1.2 11-3 5.5-1.7 10.8-4z"/>
	<path id="Layer" class="s1" d="m276.3 504.8q-10.7-4.3-20.8-9.5-10.2-5.3-19.8-11.6-9.7-6.2-18.6-13.4-9-7.1-17.2-15.1-8.2-8-15.6-16.8-7.4-8.8-13.9-18.2-6.5-9.5-12-19.5-5.5-10.1-10.1-20.6l107.3-46.1q2.2 5.3 5 10.3 2.8 5.1 6 9.8 3.3 4.7 7 9.1 3.7 4.4 7.8 8.4 4.1 4 8.6 7.6 4.4 3.5 9.2 6.7 4.9 3.1 9.9 5.7 5.1 2.7 10.5 4.8z"/>
	<path id="Layer" class="s0" d="m148.3 380.1q-4.5-10.5-8-21.5-3.4-10.9-5.8-22.1-2.4-11.2-3.7-22.6-1.2-11.4-1.4-22.9-0.1-11.5 0.9-22.9 0.9-11.4 3-22.7 2.1-11.2 5.3-22.3 3.2-11 7.4-21.6l108.4 43.2q-2.1 5.4-3.7 10.9-1.6 5.5-2.6 11.1-1.1 5.6-1.6 11.4-0.4 5.7-0.4 11.4 0.1 5.7 0.7 11.4 0.7 5.7 1.9 11.3 1.2 5.6 2.9 11.1 1.7 5.5 4 10.7z"/>
	<path id="Layer" fill-rule="evenodd" class="s3" d="m276.3 65.8l44.9 116.7"/>
	<path id="Layer" fill-rule="evenodd" class="s4" d="m579.6 374.5l-109.3-42.9"/>
	<path id="Layer" fill-rule="evenodd" class="s3" d="m455.1 504.8l-44.7-113.9"/>
	<path id="Layer" fill-rule="evenodd" class="s3" d="m449.4 71.2l-45.3 111.2"/>
	<path id="Layer" fill-rule="evenodd" class="s3" d="m583.1 197.1l-120 47.4"/>
	<path id="Layer" fill-rule="evenodd" class="s4" d="m276.3 504.8l44.9-109.3"/>
	<g id="Clip-Path" clip-path="url(#cp4)">
		<g id="Layer">
			<g id="Clip-Path" clip-path="url(#cp5)">
				<g id="Layer">
					<g id="Clip-Path" clip-path="url(#cp6)">
						<g id="Layer">
							<path id="Layer" class="s5" d="m57.2 363.3l-2.2-2.4c-41.6-45.5-38.4-116.1 7.1-157.8l2.4-2.2c45.5-41.6 116.1-38.4 157.7 7.1l77.2 84.4c0.2 0.2 0.2 0.6 0 0.8l-84.4 77.1c-45.5 41.7-116.2 38.5-157.8-7z"/>
						</g>
					</g>
				</g>
			</g>
		</g>
	</g>
	<g id="Clip-Path" clip-path="url(#cp7)">
		<g id="Layer">
			<path id="Layer" fill-rule="evenodd" class="s6" d="m422.8 298.1c-0.3 0.4-0.8 0.7-1.4 0.7h-36.3l-1 28.3h0.8c2.2 0 4 1.9 4 4.1v4.3c0 2.3-1.8 4.1-4 4.1h-73.7c-2.3 0-4.1-1.8-4.1-4.1v-4.3c0-2.2 1.8-4.1 4.1-4.1h0.8l-1.2-34.3c0-0.5 0.1-1 0.5-1.3 0.4-0.4 0.8-0.6 1.3-0.6h9.4c2.2-4.7 5.5-8.8 9.8-11.7 2.5-1.7 5.1-3 7.8-3.8-4.2-2.7-6.9-7.5-6.9-12.8 0-8.5 6.9-15.4 15.3-15.4 8.5 0 15.4 6.9 15.4 15.4 0 5.3-2.8 10.1-7 12.8 2.8 0.8 5.4 2.1 7.8 3.8q0.5 0.3 0.9 0.6c4.3-5.4 10.1-9.2 16.6-11.1-5-3-8.5-8.6-8.5-14.9 0-9.7 7.9-17.5 17.5-17.5 9.7 0 17.5 7.8 17.5 17.5 0 6.3-3.4 11.9-8.5 14.9 4.8 1.4 9.2 3.8 13 7.2 6 5.4 9.7 12.8 10.6 20.8 0.1 0.5-0.1 1-0.5 1.4zm-32.1-30.6q0 0 0 0c7.6 0 13.8-6.2 13.8-13.7 0-7.6-6.2-13.8-13.8-13.8-7.5 0-13.7 6.2-13.7 13.8 0 7.5 6.1 13.7 13.7 13.7zm-42.7 6.7q0 0 0 0c6.4-0.1 11.6-5.3 11.6-11.6 0-6.4-5.2-11.6-11.6-11.6-6.4 0-11.6 5.2-11.6 11.6 0 6.3 5.2 11.5 11.6 11.6zm-21.8 16.7h43.7c-4.3-8-12.6-13-21.9-13q0 0 0 0c-9.2 0-17.5 5-21.8 13zm58.7 40h-73.7c-0.2 0-0.3 0.1-0.3 0.3v4.3c0 0.2 0.1 0.4 0.3 0.4h73.7c0.1 0 0.3-0.2 0.3-0.4v-4.3c0-0.2-0.2-0.3-0.3-0.3zm-4.6-3.8l1.2-32.5h-66.9l1.1 32.5zm39-32.1c-2.5-13.7-14.4-23.8-28.5-23.8q0 0 0 0 0 0-0.1 0c-8.8 0-17.2 4.1-22.7 11.1 2.5 2.4 4.6 5.4 6.1 8.6h9.3c0.5 0 1 0.2 1.4 0.6 0.3 0.3 0.5 0.8 0.5 1.3l-0.1 2.2zm-62.1 16.4c0 4.1-4.1 7.5-9.1 7.5-5.1 0-9.2-3.4-9.2-7.5 0-4.2 4.1-7.5 9.2-7.5 5 0 9.1 3.3 9.1 7.5zm-3.7 0c0-2.1-2.5-3.8-5.4-3.8-3 0-5.4 1.7-5.4 3.8 0 2 2.4 3.7 5.4 3.7 2.9 0 5.4-1.7 5.4-3.7z"/>
		</g>
	</g>
	<g id="Layer">
		<g id="Layer">
			<g id="Layer">
				<path id="Layer" class="s7" d="m211.1 163.3h-5.4v-9.4h5.4v1.7h-3.4v2h3.2v1.7h-3.2v2.4h3.4z"/>
			</g>
		</g>
	</g>
	<g id="Layer">
		<g id="Layer">
			<g id="Layer">
				<path id="Layer" class="s7" d="m215.9 161.9q0.4 0 0.7-0.1 0.3 0 0.6-0.1v1.4q-0.3 0.2-0.8 0.3-0.5 0.1-1 0.1-0.7 0-1.2-0.2-0.5-0.2-0.8-0.8-0.3-0.5-0.3-1.4v-3.5h-0.9v-0.8l1.1-0.7 0.5-1.5h1.3v1.5h2v1.5h-2v3.5q0 0.4 0.2 0.6 0.3 0.2 0.6 0.2z"/>
			</g>
		</g>
	</g>
	<g id="Layer">
		<g id="Layer">
			<g id="Layer">
				<path id="Layer" class="s7" d="m220.6 153.3v2.1q0 0.5-0.1 1 0 0.5 0 0.7h0.1q0.2-0.4 0.6-0.6 0.3-0.3 0.7-0.4 0.3-0.1 0.8-0.1 0.8 0 1.3 0.3 0.6 0.3 1 0.8 0.3 0.6 0.3 1.5v4.7h-2v-4.2q0-0.7-0.3-1.1-0.2-0.4-0.8-0.4-0.6 0-1 0.3-0.3 0.2-0.5 0.8-0.1 0.5-0.1 1.3v3.3h-2v-10z"/>
			</g>
		</g>
	</g>
	<g id="Layer">
		<g id="Layer">
			<g id="Layer">
				<path id="Layer" class="s7" d="m229.3 156.1v7.2h-2v-7.2zm-1-2.8q0.4 0 0.8 0.2 0.3 0.2 0.3 0.8 0 0.5-0.3 0.7-0.4 0.2-0.8 0.2-0.4 0-0.7-0.2-0.3-0.2-0.3-0.7 0-0.6 0.3-0.8 0.3-0.2 0.7-0.2z"/>
			</g>
		</g>
	</g>
	<g id="Layer">
		<g id="Layer">
			<g id="Layer">
				<path id="Layer" class="s7" d="m234.2 163.5q-1 0-1.8-0.4-0.7-0.4-1.1-1.2-0.4-0.8-0.4-2.1 0-1.3 0.4-2.2 0.5-0.8 1.3-1.2 0.8-0.4 1.8-0.4 0.8 0 1.3 0.2 0.6 0.1 1 0.3l-0.6 1.5q-0.5-0.2-0.9-0.3-0.4-0.1-0.8-0.1-0.5 0-0.8 0.2-0.4 0.3-0.5 0.8-0.2 0.4-0.2 1.2 0 0.7 0.2 1.2 0.1 0.4 0.5 0.7 0.3 0.2 0.8 0.2 0.6 0 1.1-0.2 0.5-0.1 1-0.4v1.6q-0.5 0.3-1 0.4-0.5 0.2-1.3 0.2z"/>
			</g>
		</g>
	</g>
	<g id="Layer">
		<g id="Layer">
			<g id="Layer">
				<path id="Layer" fill-rule="evenodd" class="s7" d="m241.1 156q1.4 0 2.2 0.6 0.8 0.7 0.8 2v4.7h-1.4l-0.4-0.9q-0.3 0.4-0.7 0.6-0.3 0.2-0.7 0.3-0.4 0.2-1 0.2-0.7 0-1.2-0.3-0.5-0.2-0.8-0.7-0.3-0.5-0.3-1.3 0-1.1 0.8-1.7 0.8-0.5 2.5-0.6h1.2v-0.3q0-0.6-0.3-0.9-0.3-0.3-0.8-0.3-0.5 0-1 0.2-0.5 0.1-1 0.4l-0.7-1.4q0.6-0.2 1.3-0.4 0.7-0.2 1.5-0.2zm1 4h-0.8q-0.9 0.1-1.3 0.4-0.3 0.3-0.3 0.8 0 0.5 0.2 0.6 0.3 0.2 0.7 0.2 0.6 0 1.1-0.3 0.4-0.4 0.4-1.1z"/>
			</g>
		</g>
	</g>
	<g id="Layer">
		<g id="Layer">
			<g id="Layer">
				<path id="Layer" class="s7" d="m248.1 163.3h-2v-10h2z"/>
			</g>
		</g>
	</g>
	<g id="Layer">
		<g id="Layer">
			<g id="Layer">
			</g>
		</g>
	</g>
	<g id="Layer">
		<g id="Layer">
			<g id="Layer">
				<path id="Layer" class="s7" d="m261.4 153.9v6.1q0 1-0.5 1.8-0.4 0.8-1.3 1.2-0.8 0.5-2.1 0.5-1.9 0-2.9-1-1-0.9-1-2.5v-6.1h2v5.8q0 1.2 0.5 1.6 0.5 0.5 1.4 0.5 0.7 0 1.1-0.2 0.4-0.3 0.6-0.7 0.2-0.5 0.2-1.2v-5.8z"/>
			</g>
		</g>
	</g>
	<g id="Layer">
		<g id="Layer">
			<g id="Layer">
				<path id="Layer" class="s7" d="m268.5 161.2q0 0.7-0.3 1.3-0.3 0.5-1 0.7-0.7 0.3-1.7 0.3-0.8 0-1.3-0.1-0.6-0.1-1.1-0.3v-1.7q0.6 0.3 1.2 0.5 0.7 0.1 1.2 0.1 0.6 0 0.9-0.1 0.2-0.2 0.2-0.5 0-0.2-0.1-0.3-0.1-0.1-0.4-0.3-0.4-0.2-1.1-0.5-0.7-0.3-1.1-0.6-0.4-0.3-0.6-0.7-0.2-0.4-0.2-1 0-1 0.7-1.5 0.8-0.5 2.1-0.5 0.7 0 1.3 0.1 0.6 0.2 1.3 0.5l-0.6 1.4q-0.6-0.2-1-0.4-0.5-0.1-1-0.1-0.4 0-0.7 0.1-0.2 0.1-0.2 0.3 0 0.2 0.1 0.4 0.1 0.1 0.5 0.3 0.3 0.1 0.9 0.4 0.6 0.2 1.1 0.5 0.4 0.3 0.7 0.7 0.2 0.4 0.2 1z"/>
			</g>
		</g>
	</g>
	<g id="Layer">
		<g id="Layer">
			<g id="Layer">
				<path id="Layer" fill-rule="evenodd" class="s7" d="m273 156q1 0 1.8 0.4 0.7 0.4 1.1 1.1 0.4 0.7 0.4 1.8v0.9h-4.7q0.1 0.9 0.5 1.4 0.5 0.4 1.3 0.4 0.7 0 1.3-0.1 0.6-0.2 1.2-0.5v1.6q-0.6 0.2-1.2 0.3-0.5 0.2-1.4 0.2-1.1 0-1.9-0.4-0.8-0.4-1.3-1.2-0.5-0.9-0.5-2.1 0-1.3 0.5-2.1 0.4-0.9 1.2-1.3 0.7-0.4 1.7-0.4zm0.1 1.4q-0.6 0-1 0.4-0.4 0.3-0.4 1.1h2.7q0-0.4-0.1-0.8-0.2-0.3-0.5-0.5-0.3-0.2-0.7-0.2z"/>
			</g>
		</g>
	</g>
	<g id="Layer">
		<g id="Layer">
			<g id="Layer">
				<path id="Layer" class="s7" d="m282.9 161.2q0 0.7-0.3 1.3-0.4 0.5-1.1 0.7-0.7 0.3-1.7 0.3-0.7 0-1.3-0.1-0.5-0.1-1.1-0.3v-1.7q0.6 0.3 1.3 0.5 0.7 0.1 1.2 0.1 0.6 0 0.8-0.1 0.3-0.2 0.3-0.5 0-0.2-0.2-0.3 0-0.1-0.4-0.3-0.3-0.2-1-0.5-0.7-0.3-1.1-0.6-0.5-0.3-0.7-0.7-0.2-0.4-0.2-1 0-1 0.8-1.5 0.8-0.5 2.1-0.5 0.7 0 1.3 0.1 0.6 0.2 1.2 0.5l-0.6 1.4q-0.5-0.2-1-0.4-0.5-0.1-0.9-0.1-0.5 0-0.7 0.1-0.2 0.1-0.2 0.3 0 0.2 0.1 0.4 0.1 0.1 0.4 0.3 0.4 0.1 1 0.4 0.6 0.2 1 0.5 0.5 0.3 0.7 0.7 0.3 0.4 0.3 1z"/>
			</g>
		</g>
	</g>
	<g id="Layer">
		<g id="Layer">
			<g id="Layer">
				<path id="Layer" class="s6" d="m335 109h-2.6l-4.1-7.1q0 0.4 0 0.9 0 0.5 0 0.9 0.1 0.4 0.1 0.9v4.4h-1.8v-9.4h2.5l4.1 7.1h0.1q-0.1-0.5-0.1-0.9 0-0.4 0-0.9 0-0.4 0-0.8v-4.5h1.8z"/>
			</g>
		</g>
	</g>
	<g id="Layer">
		<g id="Layer">
			<g id="Layer">
				<path id="Layer" fill-rule="evenodd" class="s6" d="m340.1 101.7q1 0 1.8 0.4 0.7 0.4 1.1 1.1 0.4 0.7 0.4 1.8v0.9h-4.7q0.1 0.9 0.5 1.3 0.5 0.5 1.3 0.5 0.7 0 1.3-0.1 0.6-0.2 1.2-0.5v1.6q-0.6 0.2-1.2 0.3-0.5 0.2-1.4 0.2-1.1 0-1.9-0.4-0.8-0.4-1.3-1.3-0.5-0.8-0.5-2 0-1.3 0.5-2.1 0.4-0.9 1.2-1.3 0.7-0.4 1.7-0.4zm0.1 1.4q-0.6 0-1 0.4-0.4 0.3-0.4 1.1h2.7q0-0.4-0.1-0.8-0.2-0.3-0.5-0.5-0.3-0.2-0.7-0.2z"/>
			</g>
		</g>
	</g>
	<g id="Layer">
		<g id="Layer">
			<g id="Layer">
				<path id="Layer" fill-rule="evenodd" class="s6" d="m347.9 101.7q1 0 1.8 0.4 0.7 0.4 1.1 1.1 0.4 0.7 0.4 1.8v0.9h-4.7q0.1 0.9 0.5 1.3 0.5 0.5 1.3 0.5 0.7 0 1.3-0.1 0.6-0.2 1.2-0.5v1.6q-0.6 0.2-1.2 0.3-0.5 0.2-1.4 0.2-1.1 0-1.9-0.4-0.8-0.4-1.3-1.3-0.5-0.8-0.5-2 0-1.3 0.5-2.1 0.4-0.9 1.2-1.3 0.7-0.4 1.7-0.4zm0.1 1.4q-0.6 0-1 0.4-0.4 0.3-0.4 1.1h2.7q0-0.4-0.1-0.8-0.2-0.3-0.5-0.5-0.3-0.2-0.7-0.2z"/>
			</g>
		</g>
	</g>
	<g id="Layer">
		<g id="Layer">
			<g id="Layer">
				<path id="Layer" fill-rule="evenodd" class="s6" d="m355 109.2q-1.2 0-1.9-1-0.8-0.9-0.8-2.8 0-1.8 0.8-2.8 0.8-0.9 2-0.9 0.5 0 0.9 0.1 0.4 0.2 0.7 0.4 0.3 0.3 0.5 0.5 0-0.2-0.1-0.6 0-0.4 0-0.8v-2.3h2v10h-1.5l-0.4-0.9h-0.1q-0.2 0.3-0.5 0.5-0.3 0.3-0.6 0.4-0.4 0.2-1 0.2zm0.7-1.6q0.8 0 1.2-0.5 0.3-0.5 0.3-1.4v-0.2q0-1.1-0.3-1.7-0.3-0.5-1.2-0.5-0.7 0-1 0.5-0.4 0.6-0.4 1.7 0 1 0.4 1.6 0.4 0.5 1 0.5z"/>
			</g>
		</g>
	</g>
	<g id="Layer">
		<g id="Layer">
			<g id="Layer">
				<path id="Layer" class="s6" d="m366.1 106.9q0 0.7-0.3 1.2-0.3 0.5-1 0.8-0.7 0.3-1.7 0.3-0.8 0-1.3-0.1-0.6-0.1-1.1-0.4v-1.6q0.6 0.3 1.2 0.4 0.7 0.2 1.2 0.2 0.6 0 0.9-0.2 0.2-0.1 0.2-0.4 0-0.2-0.1-0.3-0.1-0.2-0.4-0.3-0.4-0.2-1.1-0.5-0.6-0.3-1.1-0.6-0.4-0.3-0.6-0.7-0.2-0.4-0.2-1 0-1 0.7-1.5 0.8-0.5 2.1-0.5 0.7 0 1.3 0.1 0.6 0.2 1.3 0.4l-0.6 1.5q-0.6-0.3-1-0.4-0.5-0.2-1-0.2-0.4 0-0.7 0.2-0.2 0.1-0.2 0.3 0 0.2 0.1 0.3 0.1 0.2 0.5 0.3 0.3 0.2 0.9 0.4 0.7 0.3 1.1 0.6 0.4 0.3 0.7 0.7 0.2 0.4 0.2 1z"/>
			</g>
		</g>
	</g>
	<g id="Layer">
		<g id="Layer">
			<g id="Layer">
			</g>
		</g>
	</g>
	<g id="Layer">
		<g id="Layer">
			<g id="Layer">
				<path id="Layer" fill-rule="evenodd" class="s6" d="m374.1 101.7q1.4 0 2.2 0.6 0.8 0.6 0.8 1.9v4.8h-1.4l-0.4-1h-0.1q-0.3 0.4-0.6 0.7-0.3 0.2-0.7 0.3-0.4 0.2-1 0.2-0.7 0-1.2-0.3-0.5-0.2-0.8-0.7-0.3-0.5-0.3-1.3 0-1.2 0.8-1.7 0.8-0.6 2.5-0.6l1.2-0.1v-0.3q0-0.5-0.3-0.8-0.3-0.3-0.8-0.3-0.5 0-1.1 0.2-0.5 0.1-1 0.4l-0.6-1.4q0.6-0.3 1.3-0.4 0.7-0.2 1.5-0.2zm1 4h-0.8q-0.9 0.1-1.3 0.4-0.4 0.3-0.4 0.8 0 0.4 0.3 0.6 0.3 0.2 0.7 0.2 0.6 0 1.1-0.4 0.4-0.3 0.4-1z"/>
			</g>
		</g>
	</g>
	<g id="Layer">
		<g id="Layer">
			<g id="Layer">
				<path id="Layer" class="s6" d="m383.2 101.7q1.1 0 1.8 0.6 0.7 0.7 0.7 2v4.7h-1.9v-4.2q0-0.8-0.3-1.1-0.3-0.4-0.9-0.4-0.9 0-1.2 0.6-0.4 0.6-0.4 1.7v3.4h-1.9v-7.2h1.5l0.2 0.9h0.1q0.3-0.3 0.6-0.6 0.4-0.2 0.8-0.3 0.4-0.1 0.9-0.1z"/>
			</g>
		</g>
	</g>
	<g id="Layer">
		<g id="Layer">
			<g id="Layer">
				<path id="Layer" fill-rule="evenodd" class="s6" d="m390 109.2q-1.2 0-1.9-1-0.8-0.9-0.8-2.8 0-1.8 0.8-2.8 0.7-0.9 2-0.9 0.5 0 0.9 0.1 0.4 0.2 0.7 0.4 0.2 0.3 0.5 0.5 0-0.2-0.1-0.6 0-0.4 0-0.8v-2.3h1.9v10h-1.5l-0.3-0.9h-0.1q-0.2 0.3-0.5 0.5-0.3 0.3-0.7 0.4-0.4 0.2-0.9 0.2zm0.7-1.6q0.8 0 1.2-0.5 0.3-0.5 0.3-1.4v-0.2q0-1.1-0.3-1.7-0.3-0.5-1.2-0.5-0.7 0-1 0.5-0.4 0.6-0.4 1.7 0 1 0.4 1.6 0.3 0.5 1 0.5z"/>
			</g>
		</g>
	</g>
	<g id="Layer">
		<g id="Layer">
			<g id="Layer">
				<path id="Layer" class="s6" d="m335.1 124.8v-9.4h2v9.4z"/>
			</g>
		</g>
	</g>
	<g id="Layer">
		<g id="Layer">
			<g id="Layer">
				<path id="Layer" class="s6" d="m347.7 117.4q1.3 0 1.9 0.7 0.6 0.6 0.6 2v4.7h-2v-4.2q0-0.8-0.2-1.2-0.3-0.4-0.8-0.4-0.8 0-1.1 0.6-0.4 0.5-0.4 1.6v3.6h-1.9v-4.2q0-0.5-0.2-0.9-0.1-0.3-0.3-0.5-0.2-0.2-0.6-0.2-0.6 0-0.9 0.3-0.3 0.3-0.4 0.8-0.2 0.5-0.2 1.3v3.4h-1.9v-7.2h1.5l0.2 0.9h0.1q0.3-0.4 0.6-0.6 0.3-0.2 0.7-0.4 0.4-0.1 0.8-0.1 0.8 0 1.4 0.3 0.5 0.3 0.8 0.8h0.2q0.3-0.6 0.9-0.8 0.6-0.3 1.2-0.3z"/>
			</g>
		</g>
	</g>
	<g id="Layer">
		<g id="Layer">
			<g id="Layer">
				<path id="Layer" fill-rule="evenodd" class="s6" d="m356.2 117.4q1.3 0 2 1 0.8 0.9 0.8 2.8 0 1.2-0.4 2-0.4 0.9-1 1.3-0.6 0.4-1.4 0.4-0.5 0-0.9-0.1-0.4-0.2-0.6-0.4-0.3-0.2-0.5-0.4h-0.1q0.1 0.3 0.1 0.5 0 0.3 0 0.5v3h-2v-10.4h1.6l0.3 0.9h0.1q0.2-0.3 0.5-0.5 0.2-0.3 0.6-0.4 0.4-0.2 0.9-0.2zm-0.6 1.6q-0.5 0-0.8 0.2-0.3 0.2-0.5 0.7-0.1 0.4-0.1 1v0.3q0 0.6 0.1 1.1 0.2 0.5 0.5 0.8 0.3 0.2 0.8 0.2 0.5 0 0.8-0.2 0.3-0.3 0.4-0.8 0.2-0.5 0.2-1.2 0-1-0.4-1.6-0.3-0.5-1-0.5z"/>
			</g>
		</g>
	</g>
	<g id="Layer">
		<g id="Layer">
			<g id="Layer">
				<path id="Layer" fill-rule="evenodd" class="s6" d="m363.5 117.4q1.5 0 2.3 0.7 0.7 0.6 0.7 1.9v4.8h-1.3l-0.4-1h-0.1q-0.3 0.4-0.6 0.6-0.3 0.3-0.8 0.4-0.4 0.1-1 0.1-0.6 0-1.1-0.2-0.5-0.3-0.8-0.8-0.3-0.5-0.3-1.3 0-1.1 0.8-1.7 0.8-0.5 2.4-0.6h1.3v-0.3q0-0.6-0.3-0.9-0.3-0.2-0.8-0.2-0.6 0-1.1 0.1-0.5 0.2-1 0.4l-0.6-1.3q0.5-0.3 1.3-0.5 0.7-0.2 1.4-0.2zm1.1 4l-0.8 0.1q-0.9 0-1.3 0.3-0.4 0.3-0.4 0.8 0 0.5 0.3 0.7 0.2 0.2 0.7 0.2 0.6 0 1-0.4 0.5-0.4 0.5-1.1z"/>
			</g>
		</g>
	</g>
	<g id="Layer">
		<g id="Layer">
			<g id="Layer">
				<path id="Layer" class="s6" d="m371.5 124.9q-1.1 0-1.9-0.4-0.7-0.4-1.1-1.2-0.4-0.8-0.4-2.1 0-1.3 0.5-2.1 0.4-0.9 1.2-1.3 0.8-0.4 1.8-0.4 0.8 0 1.3 0.2 0.6 0.1 1 0.3l-0.6 1.6q-0.5-0.2-0.9-0.3-0.4-0.2-0.8-0.2-0.5 0-0.8 0.3-0.3 0.2-0.5 0.7-0.2 0.5-0.2 1.2 0 0.7 0.2 1.2 0.2 0.5 0.5 0.7 0.4 0.2 0.8 0.2 0.7 0 1.1-0.1 0.5-0.2 1-0.5v1.7q-0.5 0.3-1 0.4-0.5 0.1-1.2 0.1z"/>
			</g>
		</g>
	</g>
	<g id="Layer">
		<g id="Layer">
			<g id="Layer">
				<path id="Layer" class="s6" d="m378.4 123.3q0.3 0 0.6 0 0.3-0.1 0.6-0.2v1.5q-0.3 0.1-0.8 0.2-0.4 0.1-1 0.1-0.6 0-1.2-0.2-0.5-0.2-0.8-0.7-0.2-0.5-0.2-1.5v-3.5h-1v-0.8l1.1-0.6 0.6-1.6h1.2v1.6h2v1.4h-2v3.5q0 0.4 0.2 0.6 0.3 0.2 0.7 0.2z"/>
			</g>
		</g>
	</g>
	<g id="Layer">
		<g id="Layer">
			<g id="Layer">
				<path id="Layer" class="s6" d="m386.1 122.6q0 0.8-0.3 1.3-0.4 0.5-1.1 0.8-0.7 0.2-1.7 0.2-0.7 0-1.3-0.1-0.5-0.1-1.1-0.3v-1.6q0.6 0.2 1.3 0.4 0.7 0.2 1.2 0.2 0.6 0 0.8-0.2 0.3-0.2 0.3-0.4 0-0.2-0.2-0.4 0-0.1-0.4-0.3-0.3-0.2-1-0.5-0.7-0.3-1.1-0.5-0.5-0.3-0.7-0.7-0.2-0.4-0.2-1 0-1 0.8-1.5 0.8-0.6 2.1-0.6 0.7 0 1.3 0.2 0.6 0.1 1.2 0.4l-0.6 1.4q-0.5-0.2-1-0.4-0.5-0.1-0.9-0.1-0.5 0-0.7 0.1-0.2 0.1-0.2 0.4 0 0.1 0.1 0.3 0.1 0.1 0.4 0.3 0.4 0.1 1 0.4 0.6 0.3 1 0.5 0.5 0.3 0.7 0.7 0.3 0.4 0.3 1z"/>
			</g>
		</g>
	</g>
	<g id="Layer">
		<g id="Layer">
			<g id="Layer">
				<path id="Layer" fill-rule="evenodd" class="s7" d="m452.1 156.4l-0.7-2.3h-3.4l-0.7 2.3h-2.1l3.3-9.5h2.4l3.4 9.5zm-1.2-4l-0.7-2.2q0-0.2-0.1-0.5-0.1-0.4-0.3-0.7-0.1-0.4-0.1-0.6-0.1 0.2-0.2 0.6-0.1 0.4-0.2 0.7-0.1 0.4-0.2 0.5l-0.6 2.2z"/>
			</g>
		</g>
	</g>
	<g id="Layer">
		<g id="Layer">
			<g id="Layer">
				<path id="Layer" class="s7" d="m458.2 156.5q-1 0-1.8-0.4-0.7-0.4-1.1-1.2-0.4-0.8-0.4-2.1 0-1.3 0.4-2.2 0.5-0.8 1.3-1.2 0.8-0.4 1.8-0.4 0.8 0 1.3 0.2 0.6 0.1 1 0.3l-0.6 1.5q-0.5-0.2-0.9-0.3-0.4-0.1-0.8-0.1-0.5 0-0.8 0.3-0.4 0.2-0.6 0.7-0.1 0.5-0.1 1.2 0 0.7 0.2 1.2 0.1 0.4 0.5 0.7 0.3 0.2 0.8 0.2 0.6 0 1.1-0.2 0.5-0.1 0.9-0.4v1.7q-0.4 0.2-0.9 0.4-0.5 0.1-1.3 0.1z"/>
			</g>
		</g>
	</g>
	<g id="Layer">
		<g id="Layer">
			<g id="Layer">
				<path id="Layer" class="s7" d="m465 156.5q-1 0-1.8-0.4-0.7-0.4-1.1-1.2-0.4-0.8-0.4-2.1 0-1.3 0.4-2.2 0.5-0.8 1.3-1.2 0.8-0.4 1.8-0.4 0.8 0 1.3 0.2 0.6 0.1 1 0.3l-0.6 1.5q-0.5-0.2-0.9-0.3-0.4-0.1-0.8-0.1-0.5 0-0.8 0.3-0.4 0.2-0.6 0.7-0.1 0.5-0.1 1.2 0 0.7 0.2 1.2 0.1 0.4 0.5 0.7 0.3 0.2 0.8 0.2 0.6 0 1.1-0.2 0.5-0.1 0.9-0.4v1.7q-0.4 0.2-0.9 0.4-0.5 0.1-1.3 0.1z"/>
			</g>
		</g>
	</g>
	<g id="Layer">
		<g id="Layer">
			<g id="Layer">
				<path id="Layer" fill-rule="evenodd" class="s7" d="m471.9 149q1 0 1.7 0.4 0.7 0.4 1.1 1.1 0.4 0.7 0.4 1.8v0.9h-4.6q0 0.9 0.5 1.4 0.4 0.4 1.3 0.4 0.6 0 1.2-0.1 0.6-0.2 1.2-0.4v1.5q-0.5 0.3-1.1 0.4-0.6 0.1-1.4 0.1-1.1 0-2-0.4-0.8-0.4-1.3-1.2-0.4-0.8-0.4-2.1 0-1.3 0.4-2.1 0.4-0.8 1.2-1.3 0.7-0.4 1.8-0.4zm0 1.4q-0.6 0-1 0.4-0.3 0.4-0.4 1.1h2.8q0-0.4-0.2-0.8-0.1-0.3-0.5-0.5-0.3-0.2-0.7-0.2z"/>
			</g>
		</g>
	</g>
	<g id="Layer">
		<g id="Layer">
			<g id="Layer">
				<path id="Layer" class="s7" d="m481.8 154.2q0 0.8-0.4 1.3-0.3 0.5-1 0.7-0.7 0.3-1.7 0.3-0.8 0-1.3-0.1-0.6-0.1-1.1-0.3v-1.7q0.6 0.3 1.3 0.5 0.6 0.2 1.1 0.2 0.6 0 0.9-0.2 0.2-0.2 0.2-0.5 0-0.1-0.1-0.3-0.1-0.1-0.4-0.3-0.4-0.2-1.1-0.5-0.6-0.3-1.1-0.6-0.4-0.3-0.6-0.7-0.2-0.4-0.2-1 0-1 0.8-1.5 0.7-0.5 2-0.5 0.7 0 1.3 0.1 0.6 0.2 1.3 0.5l-0.6 1.4q-0.6-0.2-1-0.4-0.5-0.1-1-0.1-0.4 0-0.7 0.1-0.2 0.1-0.2 0.3 0 0.2 0.1 0.4 0.2 0.1 0.5 0.3 0.3 0.1 0.9 0.4 0.6 0.2 1.1 0.5 0.5 0.3 0.7 0.7 0.3 0.4 0.3 1z"/>
			</g>
		</g>
	</g>
	<g id="Layer">
		<g id="Layer">
			<g id="Layer">
				<path id="Layer" class="s7" d="m488.3 154.2q0 0.8-0.3 1.3-0.4 0.5-1 0.7-0.7 0.3-1.8 0.3-0.7 0-1.3-0.1-0.5-0.1-1-0.3v-1.7q0.5 0.3 1.2 0.5 0.7 0.2 1.2 0.2 0.6 0 0.8-0.2 0.3-0.2 0.3-0.5 0-0.1-0.1-0.3-0.1-0.1-0.5-0.3-0.3-0.2-1-0.5-0.7-0.3-1.1-0.6-0.4-0.3-0.7-0.7-0.2-0.4-0.2-1 0-1 0.8-1.5 0.8-0.5 2.1-0.5 0.7 0 1.3 0.1 0.6 0.2 1.2 0.5l-0.5 1.4q-0.6-0.2-1.1-0.4-0.4-0.1-0.9-0.1-0.5 0-0.7 0.1-0.2 0.1-0.2 0.3 0 0.2 0.1 0.4 0.1 0.1 0.5 0.3 0.3 0.1 0.9 0.4 0.6 0.2 1.1 0.5 0.4 0.3 0.7 0.7 0.2 0.4 0.2 1z"/>
			</g>
		</g>
	</g>
	<g id="Layer">
		<g id="Layer">
			<g id="Layer">
				<path id="Layer" class="s7" d="m491.8 149.1v7.3h-2v-7.3zm-0.9-2.8q0.4 0 0.7 0.2 0.3 0.2 0.3 0.8 0 0.5-0.3 0.7-0.3 0.2-0.7 0.2-0.5 0-0.8-0.2-0.3-0.2-0.3-0.7 0-0.6 0.3-0.8 0.3-0.2 0.8-0.2z"/>
			</g>
		</g>
	</g>
	<g id="Layer">
		<g id="Layer">
			<g id="Layer">
				<path id="Layer" fill-rule="evenodd" class="s7" d="m495.9 146.3v2.3q0 0.5-0.1 0.9 0 0.4 0 0.6h0.1q0.2-0.5 0.7-0.8 0.5-0.3 1.3-0.3 1.2 0 2 1 0.7 0.9 0.7 2.7 0 1.3-0.3 2.1-0.4 0.9-1 1.3-0.6 0.4-1.4 0.4-0.8 0-1.3-0.3-0.5-0.3-0.7-0.6h-0.2l-0.3 0.8h-1.5v-10.1zm1.4 4.3q-0.5 0-0.8 0.2-0.3 0.2-0.5 0.6-0.1 0.5-0.1 1.1v0.2q0 1.1 0.3 1.7 0.3 0.5 1.1 0.5 0.6 0 1-0.6 0.3-0.5 0.3-1.6 0-1-0.3-1.6-0.4-0.5-1-0.5z"/>
			</g>
		</g>
	</g>
	<g id="Layer">
		<g id="Layer">
			<g id="Layer">
				<path id="Layer" class="s7" d="m504.2 149.1v7.3h-2v-7.3zm-0.9-2.8q0.4 0 0.7 0.2 0.3 0.2 0.3 0.8 0 0.5-0.3 0.7-0.3 0.2-0.7 0.2-0.5 0-0.8-0.2-0.3-0.2-0.3-0.7 0-0.6 0.3-0.8 0.3-0.2 0.8-0.2z"/>
			</g>
		</g>
	</g>
	<g id="Layer">
		<g id="Layer">
			<g id="Layer">
				<path id="Layer" class="s7" d="m508.3 156.4h-2v-10.1h2z"/>
			</g>
		</g>
	</g>
	<g id="Layer">
		<g id="Layer">
			<g id="Layer">
				<path id="Layer" class="s7" d="m512.3 149.1v7.3h-2v-7.3zm-1-2.8q0.5 0 0.8 0.2 0.3 0.2 0.3 0.8 0 0.5-0.3 0.7-0.3 0.2-0.8 0.2-0.4 0-0.7-0.2-0.3-0.2-0.3-0.7 0-0.6 0.3-0.8 0.3-0.2 0.7-0.2z"/>
			</g>
		</g>
	</g>
	<g id="Layer">
		<g id="Layer">
			<g id="Layer">
				<path id="Layer" class="s7" d="m517.4 154.9q0.3 0 0.6 0 0.3-0.1 0.6-0.2v1.5q-0.3 0.1-0.7 0.2-0.5 0.1-1.1 0.1-0.6 0-1.1-0.2-0.6-0.2-0.8-0.7-0.3-0.6-0.3-1.5v-3.5h-1v-0.8l1.1-0.7 0.6-1.5h1.2v1.5h2.1v1.5h-2.1v3.5q0 0.4 0.3 0.6 0.2 0.2 0.6 0.2z"/>
			</g>
		</g>
	</g>
	<g id="Layer">
		<g id="Layer">
			<g id="Layer">
				<path id="Layer" class="s7" d="m519.1 149.1h2.1l1.4 4.1q0 0.2 0.1 0.4 0 0.2 0.1 0.4 0 0.2 0 0.5h0.1q0-0.4 0.1-0.7 0-0.3 0.1-0.6l1.4-4.1h2.1l-3.1 8.2q-0.3 0.7-0.7 1.2-0.4 0.5-1 0.8-0.6 0.2-1.3 0.2-0.3 0-0.6 0-0.2 0-0.4-0.1v-1.5q0.2 0 0.4 0 0.2 0.1 0.4 0.1 0.4 0 0.7-0.2 0.3-0.2 0.5-0.5 0.2-0.3 0.3-0.6l0.1-0.4z"/>
			</g>
		</g>
	</g>
	<g id="Layer">
		<g id="Layer">
			<g id="Layer">
				<path id="Layer" fill-rule="evenodd" class="s7" d="m446.5 164.7q1.5 0 2.2 0.7 0.8 0.6 0.8 1.9v4.8h-1.4l-0.4-1q-0.3 0.4-0.6 0.7-0.4 0.2-0.8 0.3-0.4 0.1-1 0.1-0.6 0-1.2-0.2-0.5-0.2-0.8-0.7-0.2-0.6-0.2-1.3 0-1.2 0.8-1.7 0.8-0.6 2.4-0.6l1.3-0.1v-0.3q0-0.6-0.3-0.8-0.3-0.3-0.9-0.3-0.5 0-1 0.2-0.5 0.1-1 0.3l-0.7-1.3q0.6-0.3 1.3-0.5 0.7-0.2 1.5-0.2zm1.1 4.1h-0.8q-1 0-1.3 0.3-0.4 0.4-0.4 0.9 0 0.4 0.2 0.6 0.3 0.2 0.7 0.2 0.7 0 1.1-0.4 0.5-0.3 0.5-1z"/>
			</g>
		</g>
	</g>
	<g id="Layer">
		<g id="Layer">
			<g id="Layer">
				<path id="Layer" class="s7" d="m455.6 164.8q1.2 0 1.9 0.6 0.7 0.6 0.7 2v4.7h-2v-4.2q0-0.8-0.3-1.2-0.2-0.4-0.8-0.4-1 0-1.3 0.6-0.3 0.7-0.3 1.8v3.4h-2v-7.2h1.5l0.3 0.9h0.1q0.2-0.4 0.6-0.6 0.3-0.2 0.8-0.3 0.4-0.1 0.8-0.1z"/>
			</g>
		</g>
	</g>
	<g id="Layer">
		<g id="Layer">
			<g id="Layer">
				<path id="Layer" fill-rule="evenodd" class="s7" d="m462.5 172.2q-1.2 0-2-0.9-0.7-0.9-0.7-2.8 0-1.8 0.7-2.8 0.8-0.9 2.1-0.9 0.5 0 0.9 0.1 0.3 0.1 0.6 0.4 0.3 0.2 0.5 0.5h0.1q0-0.2-0.1-0.6 0-0.4 0-0.8v-2.3h1.9v10h-1.5l-0.4-0.9q-0.2 0.3-0.5 0.5-0.3 0.3-0.7 0.4-0.4 0.1-0.9 0.1zm0.7-1.5q0.8 0 1.1-0.5 0.4-0.5 0.4-1.5v-0.2q0-1-0.4-1.6-0.3-0.5-1.1-0.5-0.7 0-1.1 0.5-0.3 0.6-0.3 1.6 0 1.1 0.3 1.6 0.4 0.6 1.1 0.6z"/>
			</g>
		</g>
	</g>
	<g id="Layer">
		<g id="Layer">
			<g id="Layer">
			</g>
		</g>
	</g>
	<g id="Layer">
		<g id="Layer">
			<g id="Layer">
				<path id="Layer" class="s7" d="m479.9 162.7v6.1q-0.1 1-0.5 1.8-0.4 0.7-1.3 1.2-0.8 0.4-2.2 0.4-1.8 0-2.8-0.9-1-1-1-2.5v-6.1h2v5.8q0 1.1 0.5 1.6 0.5 0.5 1.4 0.5 0.6 0 1.1-0.2 0.4-0.3 0.6-0.8 0.2-0.4 0.2-1.2v-5.7z"/>
			</g>
		</g>
	</g>
	<g id="Layer">
		<g id="Layer">
			<g id="Layer">
				<path id="Layer" class="s7" d="m487 170q0 0.7-0.3 1.2-0.3 0.5-1 0.8-0.7 0.2-1.7 0.2-0.8 0-1.3-0.1-0.6 0-1.1-0.3v-1.6q0.6 0.3 1.2 0.4 0.7 0.2 1.2 0.2 0.6 0 0.8-0.2 0.3-0.1 0.3-0.4 0-0.2-0.1-0.3-0.1-0.2-0.4-0.4-0.4-0.1-1.1-0.4-0.6-0.3-1.1-0.6-0.4-0.3-0.6-0.7-0.2-0.4-0.2-1 0-1 0.7-1.5 0.8-0.5 2.1-0.5 0.7 0 1.3 0.1 0.6 0.1 1.3 0.4l-0.6 1.4q-0.6-0.2-1-0.3-0.5-0.2-1-0.2-0.4 0-0.7 0.1-0.2 0.1-0.2 0.4 0 0.2 0.1 0.3 0.1 0.1 0.5 0.3 0.3 0.2 0.9 0.4 0.6 0.3 1.1 0.6 0.4 0.2 0.7 0.6 0.2 0.4 0.2 1.1z"/>
			</g>
		</g>
	</g>
	<g id="Layer">
		<g id="Layer">
			<g id="Layer">
				<path id="Layer" fill-rule="evenodd" class="s7" d="m491.5 164.7q1.5 0 2.3 0.7 0.7 0.6 0.7 1.9v4.8h-1.3l-0.4-1h-0.1q-0.3 0.4-0.6 0.7-0.3 0.2-0.7 0.3-0.5 0.1-1.1 0.1-0.6 0-1.1-0.2-0.5-0.2-0.8-0.7-0.3-0.6-0.3-1.3 0-1.2 0.8-1.7 0.8-0.6 2.4-0.6l1.3-0.1v-0.3q0-0.6-0.3-0.8-0.3-0.3-0.8-0.3-0.6 0-1.1 0.2-0.5 0.1-1 0.3l-0.6-1.3q0.5-0.3 1.3-0.5 0.7-0.2 1.4-0.2zm1.1 4.1h-0.8q-0.9 0-1.3 0.3-0.4 0.4-0.4 0.9 0 0.4 0.3 0.6 0.2 0.2 0.7 0.2 0.6 0 1-0.4 0.5-0.3 0.5-1z"/>
			</g>
		</g>
	</g>
	<g id="Layer">
		<g id="Layer">
			<g id="Layer">
				<path id="Layer" fill-rule="evenodd" class="s7" d="m498.5 162.1v2.3q0 0.4 0 0.8 0 0.4-0.1 0.6h0.1q0.3-0.4 0.8-0.7 0.5-0.3 1.3-0.3 1.2 0 1.9 0.9 0.8 1 0.8 2.8 0 1.2-0.4 2.1-0.3 0.8-0.9 1.2-0.7 0.4-1.5 0.4-0.8 0-1.2-0.2-0.5-0.3-0.8-0.7h-0.1l-0.3 0.8h-1.5v-10zm1.4 4.2q-0.5 0-0.9 0.3-0.3 0.2-0.4 0.6-0.1 0.4-0.1 1.1v0.2q0 1 0.3 1.6 0.3 0.6 1.1 0.5 0.6 0 1-0.5 0.3-0.6 0.3-1.6 0-1.1-0.3-1.6-0.4-0.6-1-0.6z"/>
			</g>
		</g>
	</g>
	<g id="Layer">
		<g id="Layer">
			<g id="Layer">
				<path id="Layer" class="s7" d="m506.9 164.9v7.2h-2v-7.2zm-1-2.8q0.5 0 0.8 0.2 0.3 0.2 0.3 0.7 0 0.6-0.3 0.8-0.3 0.2-0.8 0.2-0.4 0-0.7-0.2-0.3-0.2-0.3-0.8 0-0.5 0.3-0.7 0.3-0.2 0.7-0.2z"/>
			</g>
		</g>
	</g>
	<g id="Layer">
		<g id="Layer">
			<g id="Layer">
				<path id="Layer" class="s7" d="m510.9 172.1h-1.9v-10h1.9z"/>
			</g>
		</g>
	</g>
	<g id="Layer">
		<g id="Layer">
			<g id="Layer">
				<path id="Layer" class="s7" d="m515 164.9v7.2h-2v-7.2zm-1-2.8q0.5 0 0.8 0.2 0.3 0.2 0.3 0.7 0 0.6-0.3 0.8-0.3 0.2-0.8 0.2-0.4 0-0.7-0.2-0.4-0.2-0.4-0.8 0-0.5 0.4-0.7 0.3-0.2 0.7-0.2z"/>
			</g>
		</g>
	</g>
	<g id="Layer">
		<g id="Layer">
			<g id="Layer">
				<path id="Layer" class="s7" d="m520.1 170.7q0.3 0 0.6-0.1 0.3 0 0.6-0.2v1.5q-0.3 0.2-0.8 0.2-0.4 0.1-1 0.1-0.7 0-1.2-0.2-0.5-0.2-0.8-0.7-0.3-0.5-0.3-1.4v-3.5h-0.9v-0.9l1.1-0.6 0.5-1.5h1.3v1.5h2v1.5h-2v3.5q0 0.4 0.2 0.6 0.3 0.2 0.7 0.2z"/>
			</g>
		</g>
	</g>
	<g id="Layer">
		<g id="Layer">
			<g id="Layer">
				<path id="Layer" class="s7" d="m521.7 164.9h2.2l1.3 4.1q0.1 0.2 0.2 0.4 0 0.2 0 0.4 0.1 0.2 0.1 0.4 0.1-0.3 0.1-0.6 0.1-0.3 0.2-0.6l1.3-4.1h2.2l-3.1 8.1q-0.3 0.8-0.7 1.3-0.5 0.5-1.1 0.7-0.5 0.3-1.2 0.3-0.3 0-0.6 0-0.2-0.1-0.4-0.1v-1.6q0.1 0 0.3 0.1 0.2 0 0.5 0 0.4 0 0.7-0.2 0.3-0.2 0.5-0.4 0.2-0.3 0.3-0.7l0.1-0.3z"/>
			</g>
		</g>
	</g>
	<g id="Layer">
		<g id="Layer">
			<g id="Layer">
				<path id="Layer" class="s6" d="m489.3 288.6v-9.4h2v9.4z"/>
			</g>
		</g>
	</g>
	<g id="Layer">
		<g id="Layer">
			<g id="Layer">
				<path id="Layer" class="s6" d="m497.7 281.3q1.1 0 1.8 0.6 0.7 0.6 0.7 2v4.7h-2v-4.2q0-0.8-0.2-1.2-0.3-0.4-0.9-0.4-0.9 0-1.2 0.7-0.4 0.6-0.4 1.7v3.4h-1.9v-7.2h1.5l0.2 0.9h0.1q0.3-0.3 0.6-0.6 0.4-0.2 0.8-0.3 0.4-0.1 0.9-0.1z"/>
			</g>
		</g>
	</g>
	<g id="Layer">
		<g id="Layer">
			<g id="Layer">
				<path id="Layer" class="s6" d="m505.3 287.2q0.3 0 0.6-0.1 0.3-0.1 0.6-0.1v1.4q-0.3 0.1-0.8 0.2-0.4 0.1-1 0.1-0.6 0-1.2-0.2-0.5-0.2-0.8-0.7-0.2-0.5-0.2-1.4v-3.5h-1v-0.9l1.1-0.6 0.6-1.5h1.2v1.5h2v1.5h-2v3.5q0 0.4 0.2 0.6 0.3 0.2 0.7 0.2z"/>
			</g>
		</g>
	</g>
	<g id="Layer">
		<g id="Layer">
			<g id="Layer">
				<path id="Layer" fill-rule="evenodd" class="s6" d="m510.9 281.3q1 0 1.7 0.4 0.8 0.3 1.2 1.1 0.4 0.7 0.4 1.7v1h-4.7q0.1 0.8 0.5 1.3 0.5 0.5 1.3 0.5 0.7 0 1.3-0.2 0.5-0.1 1.2-0.4v1.5q-0.6 0.3-1.2 0.4-0.5 0.1-1.4 0.1-1.1 0-1.9-0.4-0.8-0.4-1.3-1.2-0.5-0.8-0.5-2 0-1.3 0.4-2.1 0.5-0.9 1.2-1.3 0.8-0.4 1.8-0.4zm0 1.4q-0.5 0-0.9 0.3-0.4 0.4-0.4 1.2h2.7q0-0.4-0.1-0.8-0.2-0.3-0.5-0.5-0.3-0.2-0.8-0.2z"/>
			</g>
		</g>
	</g>
	<g id="Layer">
		<g id="Layer">
			<g id="Layer">
				<path id="Layer" fill-rule="evenodd" class="s6" d="m517.9 291.8q-1.6 0-2.3-0.5-0.8-0.6-0.8-1.5 0-0.7 0.4-1.1 0.4-0.4 1.2-0.6-0.3-0.2-0.6-0.4-0.2-0.3-0.2-0.7 0-0.4 0.3-0.7 0.2-0.2 0.6-0.5-0.5-0.2-0.9-0.8-0.3-0.5-0.3-1.3 0-0.7 0.3-1.3 0.4-0.6 1-0.8 0.7-0.3 1.7-0.3 0.2 0 0.4 0 0.3 0 0.5 0 0.2 0.1 0.3 0.1h2.5v1l-1.1 0.3q0.1 0.2 0.2 0.5 0.1 0.3 0.1 0.6 0 1.1-0.8 1.8-0.8 0.6-2.2 0.6-0.4 0-0.7 0-0.1 0.1-0.2 0.2-0.1 0.1-0.1 0.3 0 0.1 0.1 0.2 0.1 0.1 0.4 0.2 0.2 0 0.6 0h1.2q1.2 0 1.8 0.5 0.6 0.5 0.6 1.5 0 1.3-1 2-1.1 0.7-3 0.7zm0-1.3q0.7 0 1.2-0.1 0.6-0.2 0.8-0.4 0.3-0.2 0.3-0.6 0-0.3-0.2-0.4-0.1-0.2-0.4-0.2-0.3-0.1-0.8-0.1h-1.1q-0.3 0-0.6 0.1-0.3 0.1-0.5 0.3-0.1 0.2-0.1 0.5 0 0.4 0.4 0.7 0.3 0.2 1 0.2zm0.4-5.5q0.5 0 0.8-0.3 0.2-0.4 0.2-0.9 0-0.7-0.2-1-0.3-0.3-0.8-0.3-0.6 0-0.9 0.3-0.2 0.3-0.2 1 0 0.5 0.2 0.9 0.3 0.3 0.9 0.3z"/>
			</g>
		</g>
	</g>
	<g id="Layer">
		<g id="Layer">
			<g id="Layer">
				<path id="Layer" class="s6" d="m527.2 281.3q0.2 0 0.4 0 0.2 0 0.3 0l-0.2 1.9q-0.1-0.1-0.2-0.1-0.2 0-0.3 0-0.4 0-0.8 0.1-0.3 0.1-0.6 0.3-0.3 0.2-0.5 0.6-0.1 0.3-0.1 0.8v3.7h-2v-7.2h1.5l0.3 1.2h0.1q0.2-0.3 0.5-0.6 0.3-0.4 0.8-0.5 0.4-0.2 0.8-0.2z"/>
			</g>
		</g>
	</g>
	<g id="Layer">
		<g id="Layer">
			<g id="Layer">
				<path id="Layer" fill-rule="evenodd" class="s6" d="m532.2 281.3q1.4 0 2.2 0.6 0.8 0.6 0.8 1.9v4.8h-1.4l-0.4-1h-0.1q-0.3 0.4-0.6 0.7-0.3 0.2-0.7 0.3-0.4 0.1-1 0.1-0.7 0-1.2-0.2-0.5-0.2-0.8-0.7-0.3-0.6-0.3-1.3 0-1.2 0.8-1.7 0.8-0.6 2.5-0.6l1.2-0.1v-0.3q0-0.6-0.3-0.8-0.3-0.3-0.8-0.3-0.5 0-1.1 0.2-0.5 0.1-1 0.3l-0.6-1.3q0.6-0.3 1.3-0.5 0.7-0.1 1.5-0.1zm1 4h-0.8q-0.9 0-1.3 0.3-0.4 0.4-0.3 0.9-0.1 0.4 0.2 0.6 0.3 0.2 0.7 0.2 0.6 0 1.1-0.4 0.4-0.4 0.4-1z"/>
			</g>
		</g>
	</g>
	<g id="Layer">
		<g id="Layer">
			<g id="Layer">
				<path id="Layer" class="s6" d="m540.2 287.2q0.3 0 0.6-0.1 0.3-0.1 0.7-0.1v1.4q-0.4 0.1-0.8 0.2-0.5 0.1-1.1 0.1-0.6 0-1.1-0.2-0.5-0.2-0.8-0.7-0.3-0.5-0.3-1.4v-3.5h-1v-0.9l1.1-0.6 0.6-1.5h1.2v1.5h2.1v1.5h-2.1v3.5q0 0.4 0.3 0.6 0.2 0.2 0.6 0.2z"/>
			</g>
		</g>
	</g>
	<g id="Layer">
		<g id="Layer">
			<g id="Layer">
				<path id="Layer" class="s6" d="m544.9 281.4v7.2h-2v-7.2zm-1-2.8q0.5 0 0.8 0.2 0.3 0.2 0.3 0.7 0 0.6-0.3 0.8-0.3 0.2-0.8 0.2-0.4 0-0.7-0.2-0.3-0.2-0.3-0.8 0-0.5 0.3-0.7 0.3-0.2 0.7-0.2z"/>
			</g>
		</g>
	</g>
	<g id="Layer">
		<g id="Layer">
			<g id="Layer">
				<path id="Layer" fill-rule="evenodd" class="s6" d="m553.5 285q0 0.9-0.3 1.6-0.2 0.7-0.7 1.2-0.4 0.5-1.1 0.7-0.6 0.2-1.4 0.2-0.8 0-1.4-0.2-0.7-0.2-1.1-0.7-0.5-0.5-0.8-1.2-0.2-0.7-0.2-1.6 0-1.2 0.4-2 0.4-0.9 1.2-1.3 0.8-0.4 1.9-0.4 1 0 1.8 0.4 0.8 0.4 1.2 1.3 0.5 0.8 0.5 2zm-5 0q0 0.7 0.1 1.2 0.2 0.5 0.5 0.7 0.4 0.3 0.9 0.3 0.5 0 0.8-0.3 0.4-0.2 0.5-0.7 0.2-0.5 0.2-1.2 0-0.7-0.2-1.2-0.1-0.5-0.5-0.7-0.3-0.2-0.8-0.2-0.8 0-1.2 0.5-0.3 0.5-0.3 1.6z"/>
			</g>
		</g>
	</g>
	<g id="Layer">
		<g id="Layer">
			<g id="Layer">
				<path id="Layer" class="s6" d="m559.2 281.3q1.1 0 1.9 0.6 0.7 0.6 0.7 2v4.7h-2v-4.2q0-0.8-0.3-1.2-0.3-0.4-0.9-0.4-0.9 0-1.2 0.7-0.3 0.6-0.3 1.7v3.4h-2v-7.2h1.5l0.3 0.9h0.1q0.2-0.3 0.6-0.6 0.3-0.2 0.7-0.3 0.4-0.1 0.9-0.1z"/>
			</g>
		</g>
	</g>
	<g id="Layer">
		<g id="Layer">
			<g id="Layer">
			</g>
		</g>
	</g>
	<g id="Layer">
		<g id="Layer">
			<g id="Layer">
				<path id="Layer" fill-rule="evenodd" class="s6" d="m570.2 281.3q1.4 0 2.2 0.6 0.7 0.6 0.8 1.9v4.8h-1.4l-0.4-1h-0.1q-0.3 0.4-0.6 0.7-0.3 0.2-0.7 0.3-0.4 0.1-1.1 0.1-0.6 0-1.1-0.2-0.5-0.2-0.8-0.7-0.3-0.6-0.3-1.3 0-1.2 0.8-1.7 0.8-0.6 2.4-0.6l1.3-0.1v-0.3q0-0.6-0.3-0.8-0.3-0.3-0.8-0.3-0.5 0-1.1 0.2-0.5 0.1-1 0.3l-0.6-1.3q0.6-0.3 1.3-0.5 0.7-0.1 1.5-0.1zm1 4h-0.8q-0.9 0-1.3 0.3-0.4 0.4-0.4 0.9 0 0.4 0.3 0.6 0.3 0.2 0.7 0.2 0.6 0 1.1-0.4 0.4-0.4 0.4-1z"/>
			</g>
		</g>
	</g>
	<g id="Layer">
		<g id="Layer">
			<g id="Layer">
				<path id="Layer" class="s6" d="m579.3 281.3q1.1 0 1.8 0.6 0.7 0.6 0.7 2v4.7h-1.9v-4.2q0-0.8-0.3-1.2-0.3-0.4-0.9-0.4-0.9 0-1.2 0.7-0.4 0.6-0.4 1.7v3.4h-1.9v-7.2h1.5l0.2 0.9h0.1q0.3-0.3 0.6-0.6 0.4-0.2 0.8-0.3 0.4-0.1 0.9-0.1z"/>
			</g>
		</g>
	</g>
	<g id="Layer">
		<g id="Layer">
			<g id="Layer">
				<path id="Layer" fill-rule="evenodd" class="s6" d="m586.1 288.7q-1.2 0-1.9-0.9-0.8-1-0.8-2.8 0-1.8 0.8-2.8 0.7-0.9 2-0.9 0.5 0 0.9 0.1 0.4 0.1 0.7 0.4 0.2 0.2 0.4 0.5h0.1q0-0.2-0.1-0.6 0-0.4 0-0.8v-2.3h1.9v10h-1.5l-0.4-0.9q-0.2 0.3-0.5 0.5-0.3 0.3-0.7 0.4-0.4 0.1-0.9 0.1zm0.7-1.5q0.8 0 1.1-0.5 0.4-0.5 0.4-1.4v-0.3q0-1-0.3-1.6-0.3-0.5-1.2-0.5-0.7 0-1.1 0.5-0.3 0.6-0.3 1.6 0 1.1 0.4 1.6 0.3 0.6 1 0.6z"/>
			</g>
		</g>
	</g>
	<g id="Layer">
		<g id="Layer">
			<g id="Layer">
				<path id="Layer" class="s6" d="m500.2 296.5q-0.6 0-1 0.2-0.4 0.2-0.7 0.6-0.3 0.5-0.5 1-0.1 0.6-0.1 1.4 0 1 0.2 1.7 0.2 0.7 0.8 1.1 0.5 0.3 1.3 0.3 0.6 0 1.2-0.1 0.5-0.1 1.2-0.4v1.7q-0.6 0.3-1.2 0.4-0.6 0.1-1.4 0.1-1.4 0-2.4-0.6-0.9-0.6-1.4-1.7-0.4-1.1-0.4-2.5 0-1.1 0.3-2 0.3-0.9 0.8-1.5 0.6-0.7 1.4-1 0.9-0.4 1.9-0.4 0.7 0 1.4 0.2 0.7 0.2 1.4 0.5l-0.7 1.6q-0.5-0.3-1-0.4-0.6-0.2-1.1-0.2z"/>
			</g>
		</g>
	</g>
	<g id="Layer">
		<g id="Layer">
			<g id="Layer">
				<path id="Layer" fill-rule="evenodd" class="s6" d="m511 300.8q0 0.8-0.2 1.5-0.3 0.7-0.7 1.2-0.5 0.5-1.1 0.8-0.7 0.2-1.5 0.2-0.8 0-1.4-0.2-0.6-0.3-1.1-0.8-0.5-0.5-0.7-1.2-0.3-0.7-0.3-1.5 0-1.2 0.5-2.1 0.4-0.8 1.2-1.2 0.8-0.5 1.8-0.5 1.1 0 1.8 0.5 0.8 0.4 1.3 1.2 0.4 0.9 0.4 2.1zm-5 0q0 0.7 0.2 1.1 0.1 0.5 0.5 0.8 0.3 0.2 0.8 0.2 0.5 0 0.9-0.2 0.3-0.3 0.4-0.8 0.2-0.4 0.2-1.1 0-0.8-0.2-1.2-0.1-0.5-0.4-0.8-0.4-0.2-0.9-0.2-0.8 0-1.1 0.5-0.4 0.6-0.4 1.7z"/>
			</g>
		</g>
	</g>
	<g id="Layer">
		<g id="Layer">
			<g id="Layer">
				<path id="Layer" class="s6" d="m521.1 297q1.2 0 1.8 0.7 0.7 0.6 0.7 2v4.7h-2v-4.2q0-0.8-0.3-1.2-0.2-0.4-0.8-0.4-0.8 0-1.1 0.6-0.3 0.5-0.3 1.6v3.6h-2v-4.2q0-0.6-0.1-0.9-0.1-0.4-0.3-0.5-0.3-0.2-0.7-0.2-0.5 0-0.8 0.3-0.3 0.2-0.5 0.8-0.1 0.5-0.1 1.3v3.4h-2v-7.2h1.5l0.3 0.9h0.1q0.2-0.4 0.6-0.6 0.3-0.3 0.7-0.4 0.4-0.1 0.8-0.1 0.8 0 1.3 0.3 0.6 0.2 0.9 0.8h0.2q0.3-0.6 0.9-0.8 0.6-0.3 1.2-0.3z"/>
			</g>
		</g>
	</g>
	<g id="Layer">
		<g id="Layer">
			<g id="Layer">
				<path id="Layer" fill-rule="evenodd" class="s6" d="m529.6 297q1.2 0 2 1 0.7 0.9 0.7 2.8 0 1.2-0.3 2-0.4 0.8-1 1.3-0.6 0.4-1.5 0.4-0.5 0-0.8-0.1-0.4-0.2-0.7-0.4-0.3-0.2-0.4-0.4h-0.1q0 0.2 0 0.5 0.1 0.3 0.1 0.5v2.9h-2v-10.3h1.6l0.3 0.9h0.1q0.2-0.3 0.4-0.5 0.3-0.3 0.7-0.4 0.4-0.2 0.9-0.2zm-0.6 1.6q-0.5 0-0.9 0.2-0.3 0.2-0.4 0.6-0.1 0.5-0.1 1.1v0.2q0 0.7 0.1 1.2 0.1 0.5 0.4 0.7 0.4 0.3 0.9 0.3 0.5 0 0.7-0.3 0.3-0.2 0.5-0.7 0.1-0.5 0.1-1.2 0-1-0.3-1.6-0.3-0.5-1-0.5z"/>
			</g>
		</g>
	</g>
	<g id="Layer">
		<g id="Layer">
			<g id="Layer">
				<path id="Layer" fill-rule="evenodd" class="s6" d="m536.9 297q1.4 0 2.2 0.6 0.8 0.7 0.8 2v4.8h-1.4l-0.4-1q-0.3 0.4-0.6 0.6-0.4 0.3-0.8 0.4-0.4 0.1-1 0.1-0.6 0-1.1-0.2-0.6-0.3-0.8-0.8-0.3-0.5-0.3-1.3 0-1.1 0.8-1.7 0.8-0.5 2.4-0.6h1.2v-0.3q0-0.6-0.3-0.9-0.3-0.2-0.8-0.2-0.5 0-1 0.1-0.5 0.2-1 0.4l-0.7-1.3q0.6-0.3 1.3-0.5 0.7-0.2 1.5-0.2zm1 4h-0.7q-1 0.1-1.3 0.4-0.4 0.3-0.4 0.8 0 0.5 0.2 0.7 0.3 0.1 0.7 0.1 0.7 0 1.1-0.3 0.4-0.4 0.4-1.1z"/>
			</g>
		</g>
	</g>
	<g id="Layer">
		<g id="Layer">
			<g id="Layer">
				<path id="Layer" class="s6" d="m544.9 302.9q0.4 0 0.7 0 0.3-0.1 0.6-0.2v1.5q-0.3 0.1-0.8 0.2-0.5 0.1-1 0.1-0.7 0-1.2-0.2-0.5-0.2-0.8-0.8-0.3-0.5-0.3-1.4v-3.5h-0.9v-0.8l1.1-0.7 0.5-1.5h1.3v1.6h2v1.4h-2v3.5q0 0.4 0.2 0.6 0.3 0.2 0.6 0.2z"/>
			</g>
		</g>
	</g>
	<g id="Layer">
		<g id="Layer">
			<g id="Layer">
				<path id="Layer" class="s6" d="m549.6 297.2v7.2h-2v-7.2zm-0.9-2.9q0.4 0 0.7 0.2 0.3 0.2 0.3 0.8 0 0.5-0.3 0.7-0.3 0.3-0.7 0.3-0.5 0-0.8-0.3-0.3-0.2-0.3-0.7 0-0.6 0.3-0.8 0.3-0.2 0.8-0.2z"/>
			</g>
		</g>
	</g>
	<g id="Layer">
		<g id="Layer">
			<g id="Layer">
				<path id="Layer" fill-rule="evenodd" class="s6" d="m553.6 294.3v2.4q0 0.4 0 0.8 0 0.4 0 0.6 0.3-0.5 0.8-0.8 0.5-0.3 1.3-0.3 1.2 0 1.9 1 0.8 0.9 0.8 2.8 0 1.2-0.4 2-0.3 0.8-0.9 1.3-0.7 0.4-1.5 0.4-0.8 0-1.2-0.3-0.5-0.3-0.8-0.6h-0.1l-0.3 0.8h-1.5v-10.1zm1.4 4.3q-0.5 0-0.9 0.2-0.3 0.2-0.4 0.6-0.1 0.5-0.1 1.1v0.2q0 1.1 0.3 1.6 0.3 0.6 1.1 0.6 0.6 0 1-0.6 0.3-0.5 0.3-1.6 0-1-0.3-1.6-0.4-0.5-1-0.5z"/>
			</g>
		</g>
	</g>
	<g id="Layer">
		<g id="Layer">
			<g id="Layer">
				<path id="Layer" class="s6" d="m562 297.2v7.2h-2v-7.2zm-1-2.9q0.5 0 0.8 0.2 0.3 0.2 0.3 0.8 0 0.5-0.3 0.7-0.3 0.3-0.8 0.3-0.4 0-0.7-0.3-0.3-0.2-0.3-0.7 0-0.6 0.3-0.8 0.3-0.2 0.7-0.2z"/>
			</g>
		</g>
	</g>
	<g id="Layer">
		<g id="Layer">
			<g id="Layer">
				<path id="Layer" class="s6" d="m566 304.4h-2v-10.1h2z"/>
			</g>
		</g>
	</g>
	<g id="Layer">
		<g id="Layer">
			<g id="Layer">
				<path id="Layer" class="s6" d="m570 297.2v7.2h-1.9v-7.2zm-1-2.9q0.4 0 0.7 0.2 0.4 0.2 0.4 0.8 0 0.5-0.4 0.7-0.3 0.3-0.7 0.3-0.5 0-0.8-0.3-0.3-0.2-0.3-0.7 0-0.6 0.3-0.8 0.3-0.2 0.8-0.2z"/>
			</g>
		</g>
	</g>
	<g id="Layer">
		<g id="Layer">
			<g id="Layer">
				<path id="Layer" class="s6" d="m575.1 302.9q0.4 0 0.7 0 0.3-0.1 0.6-0.2v1.5q-0.3 0.1-0.8 0.2-0.5 0.1-1 0.1-0.7 0-1.2-0.2-0.5-0.2-0.8-0.8-0.3-0.5-0.3-1.4v-3.5h-0.9v-0.8l1.1-0.7 0.5-1.5h1.3v1.6h2v1.4h-2v3.5q0 0.4 0.2 0.6 0.3 0.2 0.6 0.2z"/>
			</g>
		</g>
	</g>
	<g id="Layer">
		<g id="Layer">
			<g id="Layer">
				<path id="Layer" class="s6" d="m576.8 297.2h2.2l1.3 4q0.1 0.2 0.1 0.4 0.1 0.2 0.1 0.4 0 0.2 0 0.5h0.1q0-0.4 0.1-0.7 0.1-0.3 0.2-0.6l1.3-4h2.1l-3 8.1q-0.3 0.7-0.8 1.2-0.4 0.5-1 0.8-0.6 0.2-1.3 0.2-0.3 0-0.5 0-0.3 0-0.5-0.1v-1.5q0.2 0 0.4 0 0.2 0 0.4 0 0.4 0 0.7-0.1 0.3-0.2 0.5-0.5 0.2-0.3 0.3-0.6l0.2-0.4z"/>
			</g>
		</g>
	</g>
	<g id="Layer">
		<g id="Layer">
			<g id="Layer">
				<path id="Layer" fill-rule="evenodd" class="s7" d="m452.7 407.3q0 1.6-0.6 2.6-0.6 1.1-1.7 1.6-1.2 0.6-2.8 0.6h-2.7v-9.4h3q1.5 0 2.6 0.5 1.1 0.5 1.7 1.5 0.5 1.1 0.5 2.6zm-2 0q0-1-0.3-1.7-0.3-0.7-0.9-1-0.6-0.3-1.5-0.3h-1.1v6.1h0.9q1.4 0 2.2-0.7 0.7-0.8 0.7-2.4z"/>
			</g>
		</g>
	</g>
	<g id="Layer">
		<g id="Layer">
			<g id="Layer">
				<path id="Layer" fill-rule="evenodd" class="s7" d="m457.5 404.7q1.5 0 2.2 0.7 0.8 0.6 0.8 1.9v4.8h-1.4l-0.4-1q-0.3 0.4-0.6 0.6-0.4 0.3-0.8 0.4-0.4 0.1-1 0.1-0.6 0-1.1-0.2-0.5-0.3-0.8-0.8-0.3-0.5-0.3-1.3 0-1.1 0.8-1.7 0.8-0.5 2.4-0.6h1.2v-0.3q0-0.6-0.3-0.9-0.3-0.2-0.8-0.2-0.5 0-1 0.1-0.5 0.2-1 0.4l-0.7-1.3q0.6-0.3 1.3-0.5 0.7-0.2 1.5-0.2zm1 4l-0.7 0.1q-1 0-1.3 0.3-0.4 0.3-0.4 0.8 0 0.5 0.2 0.7 0.3 0.2 0.7 0.2 0.7 0 1.1-0.4 0.4-0.4 0.4-1.1z"/>
			</g>
		</g>
	</g>
	<g id="Layer">
		<g id="Layer">
			<g id="Layer">
				<path id="Layer" class="s7" d="m465.5 410.6q0.4 0 0.7 0 0.3-0.1 0.6-0.2v1.5q-0.3 0.1-0.8 0.2-0.5 0.1-1 0.1-0.7 0-1.2-0.2-0.5-0.2-0.8-0.7-0.3-0.5-0.3-1.5v-3.5h-0.9v-0.8l1.1-0.6 0.5-1.6h1.3v1.6h2v1.4h-2v3.5q0 0.4 0.2 0.6 0.3 0.2 0.6 0.2z"/>
			</g>
		</g>
	</g>
	<g id="Layer">
		<g id="Layer">
			<g id="Layer">
				<path id="Layer" fill-rule="evenodd" class="s7" d="m471.2 404.7q1.4 0 2.2 0.7 0.8 0.6 0.8 1.9v4.8h-1.4l-0.4-1q-0.3 0.4-0.6 0.6-0.4 0.3-0.8 0.4-0.4 0.1-1 0.1-0.6 0-1.1-0.2-0.6-0.3-0.8-0.8-0.3-0.5-0.3-1.3 0-1.1 0.8-1.7 0.8-0.5 2.4-0.6h1.2v-0.3q0-0.6-0.3-0.9-0.3-0.2-0.8-0.2-0.5 0-1 0.1-0.5 0.2-1 0.4l-0.7-1.3q0.6-0.3 1.3-0.5 0.7-0.2 1.5-0.2zm1 4l-0.7 0.1q-1 0-1.3 0.3-0.4 0.3-0.4 0.8 0 0.5 0.2 0.7 0.3 0.2 0.7 0.2 0.7 0 1.1-0.4 0.4-0.4 0.4-1.1z"/>
			</g>
		</g>
	</g>
	<g id="Layer">
		<g id="Layer">
			<g id="Layer">
			</g>
		</g>
	</g>
	<g id="Layer">
		<g id="Layer">
			<g id="Layer">
				<path id="Layer" class="s7" d="m485.4 409.5q0 0.8-0.4 1.4-0.5 0.6-1.2 1-0.8 0.3-1.9 0.3-0.5 0-1-0.1-0.4 0-0.9-0.1-0.4-0.2-0.8-0.4v-1.8q0.7 0.3 1.4 0.5 0.7 0.3 1.4 0.3 0.5 0 0.8-0.2 0.3-0.1 0.5-0.3 0.1-0.3 0.1-0.5 0-0.4-0.2-0.6-0.3-0.3-0.7-0.5-0.4-0.2-0.9-0.5-0.4-0.1-0.8-0.4-0.3-0.2-0.7-0.5-0.3-0.3-0.6-0.8-0.2-0.5-0.2-1.1 0-0.8 0.4-1.4 0.4-0.6 1.1-1 0.7-0.3 1.7-0.3 0.8 0 1.4 0.2 0.7 0.2 1.4 0.5l-0.6 1.5q-0.7-0.2-1.2-0.4-0.5-0.1-1-0.1-0.4 0-0.7 0.1-0.3 0.1-0.4 0.3-0.1 0.2-0.1 0.5 0 0.4 0.2 0.6 0.2 0.2 0.6 0.4 0.4 0.3 1 0.5 0.7 0.4 1.2 0.8 0.5 0.3 0.8 0.8 0.3 0.5 0.3 1.3z"/>
			</g>
		</g>
	</g>
	<g id="Layer">
		<g id="Layer">
			<g id="Layer">
				<path id="Layer" fill-rule="evenodd" class="s7" d="m489.9 404.7q1 0 1.7 0.4 0.7 0.4 1.1 1.1 0.4 0.8 0.4 1.8v1h-4.6q0 0.8 0.5 1.3 0.4 0.5 1.3 0.5 0.7 0 1.2-0.2 0.6-0.1 1.2-0.4v1.5q-0.5 0.3-1.1 0.4-0.6 0.1-1.4 0.1-1.1 0-1.9-0.4-0.9-0.4-1.4-1.2-0.4-0.8-0.4-2.1 0-1.2 0.4-2.1 0.4-0.8 1.2-1.2 0.8-0.5 1.8-0.5zm0 1.4q-0.6 0-1 0.4-0.3 0.4-0.4 1.2h2.8q0-0.5-0.2-0.8-0.1-0.4-0.4-0.6-0.3-0.2-0.8-0.2z"/>
			</g>
		</g>
	</g>
	<g id="Layer">
		<g id="Layer">
			<g id="Layer">
				<path id="Layer" class="s7" d="m497.6 412.2q-1 0-1.8-0.4-0.8-0.4-1.1-1.2-0.4-0.8-0.4-2.1 0-1.3 0.4-2.1 0.5-0.9 1.3-1.3 0.8-0.4 1.8-0.4 0.7 0 1.3 0.2 0.5 0.1 0.9 0.3l-0.5 1.6q-0.5-0.2-0.9-0.3-0.4-0.2-0.8-0.2-0.5 0-0.9 0.3-0.3 0.2-0.5 0.7-0.1 0.5-0.1 1.2 0 0.7 0.1 1.2 0.2 0.5 0.6 0.7 0.3 0.2 0.8 0.2 0.6 0 1.1-0.1 0.5-0.2 0.9-0.5v1.7q-0.4 0.3-0.9 0.4-0.5 0.1-1.3 0.1z"/>
			</g>
		</g>
	</g>
	<g id="Layer">
		<g id="Layer">
			<g id="Layer">
				<path id="Layer" class="s7" d="m508.1 404.9v7.2h-1.5l-0.3-0.9h-0.1q-0.2 0.3-0.6 0.6-0.3 0.2-0.7 0.3-0.4 0.1-0.9 0.1-0.8 0-1.3-0.3-0.6-0.2-0.9-0.8-0.3-0.6-0.3-1.5v-4.7h1.9v4.2q0 0.8 0.3 1.2 0.3 0.3 0.9 0.3 0.6 0 0.9-0.2 0.4-0.3 0.5-0.8 0.1-0.6 0.1-1.3v-3.4z"/>
			</g>
		</g>
	</g>
	<g id="Layer">
		<g id="Layer">
			<g id="Layer">
				<path id="Layer" class="s7" d="m514.2 404.7q0.1 0 0.3 0.1 0.2 0 0.4 0l-0.2 1.8q-0.1 0-0.3 0-0.1 0-0.3 0-0.4 0-0.7 0.1-0.4 0.1-0.7 0.3-0.2 0.2-0.4 0.6-0.2 0.3-0.2 0.8v3.7h-1.9v-7.2h1.4l0.3 1.2h0.1q0.3-0.4 0.6-0.7 0.3-0.3 0.7-0.5 0.4-0.2 0.9-0.2z"/>
			</g>
		</g>
	</g>
	<g id="Layer">
		<g id="Layer">
			<g id="Layer">
				<path id="Layer" class="s7" d="m518.1 404.9v7.2h-1.9v-7.2zm-1-2.9q0.4 0.1 0.7 0.3 0.3 0.2 0.3 0.7 0 0.6-0.3 0.8-0.3 0.2-0.7 0.2-0.5 0-0.8-0.2-0.3-0.2-0.3-0.8 0-0.5 0.3-0.7 0.3-0.2 0.8-0.3z"/>
			</g>
		</g>
	</g>
	<g id="Layer">
		<g id="Layer">
			<g id="Layer">
				<path id="Layer" class="s7" d="m523.2 410.6q0.3 0 0.6 0 0.3-0.1 0.7-0.2v1.5q-0.4 0.1-0.8 0.2-0.5 0.1-1 0.1-0.7 0-1.2-0.2-0.5-0.2-0.8-0.7-0.3-0.5-0.3-1.5v-3.5h-1v-0.8l1.1-0.6 0.6-1.6h1.3v1.6h2v1.4h-2v3.5q0 0.4 0.2 0.6 0.2 0.2 0.6 0.2z"/>
			</g>
		</g>
	</g>
	<g id="Layer">
		<g id="Layer">
			<g id="Layer">
				<path id="Layer" class="s7" d="m524.9 404.9h2.1l1.4 4q0.1 0.2 0.1 0.4 0 0.2 0.1 0.4 0 0.2 0 0.5h0.1q0-0.4 0.1-0.7 0-0.3 0.1-0.6l1.4-4h2.1l-3.1 8.1q-0.2 0.7-0.7 1.3-0.4 0.4-1 0.7-0.6 0.2-1.3 0.3-0.3 0-0.6-0.1-0.2 0-0.4-0.1v-1.5q0.2 0 0.4 0 0.2 0.1 0.4 0.1 0.4 0 0.7-0.2 0.3-0.2 0.5-0.5 0.2-0.3 0.3-0.6l0.1-0.4z"/>
			</g>
		</g>
	</g>
	<g id="Layer">
		<g id="Layer">
			<g id="Layer">
				<path id="Layer" fill-rule="evenodd" class="s7" d="m453.8 420.5q1.5 0 2.2 0.6 0.8 0.6 0.8 1.9v4.8h-1.4l-0.3-1h-0.1q-0.3 0.4-0.6 0.7-0.4 0.2-0.8 0.3-0.4 0.2-1 0.2-0.6 0-1.1-0.3-0.5-0.2-0.8-0.7-0.3-0.5-0.3-1.3 0-1.2 0.8-1.7 0.8-0.6 2.4-0.6l1.2-0.1v-0.3q0-0.5-0.2-0.8-0.3-0.3-0.9-0.3-0.5 0-1 0.2-0.5 0.1-1 0.4l-0.7-1.4q0.6-0.3 1.3-0.4 0.7-0.2 1.5-0.2zm1 4h-0.7q-1 0.1-1.3 0.4-0.4 0.3-0.4 0.8 0 0.4 0.2 0.6 0.3 0.2 0.7 0.2 0.7 0 1.1-0.4 0.4-0.3 0.4-1z"/>
			</g>
		</g>
	</g>
	<g id="Layer">
		<g id="Layer">
			<g id="Layer">
				<path id="Layer" class="s7" d="m462.9 420.5q1.2 0 1.9 0.6 0.7 0.7 0.7 2v4.7h-2v-4.2q0-0.8-0.3-1.1-0.3-0.4-0.8-0.4-1 0-1.3 0.6-0.3 0.6-0.3 1.7v3.4h-2v-7.2h1.5l0.3 0.9h0.1q0.2-0.3 0.6-0.6 0.3-0.2 0.7-0.3 0.5-0.1 0.9-0.1z"/>
			</g>
		</g>
	</g>
	<g id="Layer">
		<g id="Layer">
			<g id="Layer">
				<path id="Layer" fill-rule="evenodd" class="s7" d="m469.8 428q-1.2 0-2-1-0.7-0.9-0.7-2.8 0-1.8 0.7-2.8 0.8-0.9 2-0.9 0.5 0 0.9 0.1 0.4 0.2 0.7 0.4 0.3 0.3 0.5 0.5h0.1q-0.1-0.2-0.1-0.6-0.1-0.4-0.1-0.8v-2.3h2v10h-1.5l-0.4-0.9h-0.1q-0.2 0.3-0.4 0.5-0.3 0.3-0.7 0.4-0.4 0.2-0.9 0.2zm0.7-1.6q0.8 0 1.1-0.5 0.3-0.5 0.4-1.4v-0.2q0-1.1-0.4-1.7-0.3-0.5-1.2-0.5-0.6 0-1 0.5-0.4 0.6-0.4 1.7 0 1 0.4 1.6 0.4 0.5 1.1 0.5z"/>
			</g>
		</g>
	</g>
	<g id="Layer">
		<g id="Layer">
			<g id="Layer">
			</g>
		</g>
	</g>
	<g id="Layer">
		<g id="Layer">
			<g id="Layer">
				<path id="Layer" fill-rule="evenodd" class="s7" d="m482.4 418.4q1.9 0 2.7 0.8 0.8 0.8 0.8 2.1 0 0.7-0.1 1.2-0.2 0.6-0.7 1-0.4 0.5-1.1 0.7-0.7 0.3-1.7 0.3h-0.9v3.3h-2v-9.4zm-0.1 1.6h-0.9v2.8h0.7q0.5 0 0.9-0.1 0.5-0.1 0.7-0.5 0.2-0.3 0.2-0.8 0-0.7-0.4-1-0.4-0.3-1.2-0.4z"/>
			</g>
		</g>
	</g>
	<g id="Layer">
		<g id="Layer">
			<g id="Layer">
				<path id="Layer" class="s7" d="m491.6 420.5q0.1 0 0.3 0 0.2 0 0.3 0l-0.1 1.9q-0.1 0-0.3-0.1-0.2 0-0.3 0-0.4 0-0.7 0.1-0.4 0.1-0.7 0.3-0.2 0.3-0.4 0.6-0.2 0.4-0.2 0.9v3.6h-1.9v-7.2h1.4l0.3 1.2h0.1q0.2-0.3 0.6-0.6 0.3-0.3 0.7-0.5 0.4-0.2 0.9-0.2z"/>
			</g>
		</g>
	</g>
	<g id="Layer">
		<g id="Layer">
			<g id="Layer">
				<path id="Layer" class="s7" d="m495.5 420.6v7.2h-2v-7.2zm-0.9-2.8q0.4 0 0.7 0.2 0.3 0.2 0.3 0.8 0 0.5-0.3 0.7-0.3 0.2-0.7 0.2-0.5 0-0.8-0.2-0.3-0.2-0.3-0.7 0-0.6 0.3-0.8 0.3-0.2 0.8-0.2z"/>
			</g>
		</g>
	</g>
	<g id="Layer">
		<g id="Layer">
			<g id="Layer">
				<path id="Layer" class="s7" d="m499.3 427.8l-2.8-7.2h2.1l1.4 4.1q0.1 0.4 0.2 0.8 0 0.4 0.1 0.7 0-0.3 0.1-0.7 0.1-0.4 0.2-0.8l1.4-4.1h2.1l-2.8 7.2z"/>
			</g>
		</g>
	</g>
	<g id="Layer">
		<g id="Layer">
			<g id="Layer">
				<path id="Layer" fill-rule="evenodd" class="s7" d="m508 420.5q1.5 0 2.3 0.6 0.7 0.6 0.7 1.9v4.8h-1.3l-0.4-1h-0.1q-0.3 0.4-0.6 0.7-0.3 0.2-0.8 0.3-0.4 0.2-1 0.2-0.6 0-1.1-0.3-0.5-0.2-0.8-0.7-0.3-0.5-0.3-1.3 0-1.2 0.8-1.7 0.8-0.6 2.4-0.6l1.3-0.1v-0.3q0-0.5-0.3-0.8-0.3-0.3-0.8-0.3-0.6 0-1.1 0.2-0.5 0.1-1 0.4l-0.6-1.4q0.5-0.3 1.2-0.4 0.8-0.2 1.5-0.2zm1.1 4h-0.8q-0.9 0.1-1.3 0.4-0.4 0.3-0.4 0.8 0 0.4 0.3 0.6 0.2 0.2 0.7 0.2 0.6 0 1-0.4 0.5-0.3 0.5-1z"/>
			</g>
		</g>
	</g>
	<g id="Layer">
		<g id="Layer">
			<g id="Layer">
				<path id="Layer" class="s7" d="m516 428q-1.1 0-1.9-0.4-0.7-0.4-1.1-1.2-0.4-0.8-0.4-2.1 0-1.4 0.5-2.2 0.4-0.8 1.2-1.2 0.8-0.4 1.8-0.4 0.8 0 1.3 0.1 0.6 0.2 1 0.4l-0.6 1.5q-0.5-0.2-0.9-0.3-0.4-0.1-0.8-0.1-0.5 0-0.8 0.2-0.3 0.3-0.5 0.7-0.2 0.5-0.2 1.3 0 0.7 0.2 1.1 0.2 0.5 0.5 0.7 0.4 0.3 0.8 0.3 0.7 0 1.1-0.2 0.5-0.2 1-0.5v1.7q-0.5 0.3-1 0.4-0.5 0.2-1.2 0.2z"/>
			</g>
		</g>
	</g>
	<g id="Layer">
		<g id="Layer">
			<g id="Layer">
				<path id="Layer" class="s7" d="m518.8 420.6h2.2l1.3 4.1q0.1 0.2 0.1 0.4 0.1 0.2 0.1 0.4 0 0.2 0.1 0.4 0-0.3 0.1-0.6 0.1-0.3 0.2-0.6l1.3-4.1h2.1l-3 8.2q-0.3 0.7-0.8 1.2-0.4 0.5-1 0.8-0.6 0.2-1.2 0.2-0.4 0-0.6 0-0.3-0.1-0.4-0.1v-1.6q0.1 0.1 0.3 0.1 0.2 0 0.4 0 0.4 0 0.7-0.2 0.3-0.1 0.5-0.4 0.2-0.3 0.4-0.7l0.1-0.3z"/>
			</g>
		</g>
	</g>
	<g id="Layer">
		<g id="Layer">
			<g id="Layer">
				<path id="Layer" class="s6" d="m326.3 465h-2v-7.7h-2.5v-1.7h7.1v1.7h-2.6z"/>
			</g>
		</g>
	</g>
	<g id="Layer">
		<g id="Layer">
			<g id="Layer">
				<path id="Layer" fill-rule="evenodd" class="s6" d="m333.2 457.7q1 0 1.7 0.4 0.7 0.3 1.1 1.1 0.4 0.7 0.4 1.8v0.9h-4.7q0.1 0.8 0.5 1.3 0.5 0.5 1.4 0.5 0.6 0 1.2-0.1 0.6-0.2 1.2-0.5v1.6q-0.5 0.2-1.1 0.3-0.6 0.2-1.4 0.2-1.1 0-2-0.4-0.8-0.4-1.3-1.3-0.4-0.8-0.4-2 0-1.3 0.4-2.1 0.4-0.9 1.2-1.3 0.7-0.4 1.8-0.4zm0 1.4q-0.6 0-1 0.4-0.4 0.3-0.4 1.1h2.8q-0.1-0.4-0.2-0.8-0.2-0.3-0.5-0.5-0.3-0.2-0.7-0.2z"/>
			</g>
		</g>
	</g>
	<g id="Layer">
		<g id="Layer">
			<g id="Layer">
				<path id="Layer" fill-rule="evenodd" class="s6" d="m340.9 457.7q1.5 0 2.3 0.6 0.7 0.6 0.7 1.9v4.8h-1.3l-0.4-1h-0.1q-0.3 0.4-0.6 0.7-0.3 0.2-0.7 0.3-0.5 0.2-1.1 0.2-0.6 0-1.1-0.3-0.5-0.2-0.8-0.7-0.3-0.5-0.3-1.3 0-1.2 0.8-1.7 0.8-0.6 2.4-0.6l1.3-0.1v-0.3q0-0.5-0.3-0.8-0.3-0.3-0.8-0.3-0.6 0-1.1 0.2-0.5 0.1-1 0.4l-0.6-1.4q0.6-0.3 1.3-0.4 0.7-0.2 1.4-0.2zm1.1 4h-0.8q-0.9 0-1.3 0.4-0.4 0.3-0.4 0.8 0 0.4 0.3 0.6 0.2 0.2 0.7 0.2 0.6 0 1.1-0.4 0.4-0.3 0.4-1z"/>
			</g>
		</g>
	</g>
	<g id="Layer">
		<g id="Layer">
			<g id="Layer">
				<path id="Layer" class="s6" d="m348.9 465.2q-1.1 0-1.8-0.4-0.8-0.4-1.2-1.2-0.4-0.9-0.4-2.1 0-1.4 0.5-2.2 0.4-0.8 1.2-1.2 0.8-0.4 1.9-0.4 0.7 0 1.2 0.1 0.6 0.2 1 0.4l-0.6 1.5q-0.4-0.2-0.9-0.3-0.3-0.1-0.7-0.1-0.6 0-0.9 0.2-0.3 0.2-0.5 0.7-0.2 0.5-0.2 1.2 0 0.8 0.2 1.2 0.2 0.5 0.5 0.7 0.4 0.3 0.9 0.3 0.6 0 1-0.2 0.5-0.2 1-0.5v1.7q-0.5 0.3-1 0.4-0.5 0.2-1.2 0.2z"/>
			</g>
		</g>
	</g>
	<g id="Layer">
		<g id="Layer">
			<g id="Layer">
				<path id="Layer" class="s6" d="m354.7 455v2q0 0.6 0 1.1-0.1 0.4-0.1 0.6h0.1q0.3-0.3 0.6-0.6 0.3-0.2 0.7-0.3 0.4-0.1 0.8-0.1 0.8 0 1.4 0.3 0.6 0.2 0.9 0.8 0.3 0.6 0.3 1.5v4.7h-2v-4.2q0-0.8-0.3-1.1-0.2-0.4-0.8-0.4-0.6 0-1 0.2-0.3 0.3-0.4 0.8-0.2 0.6-0.2 1.3v3.4h-2v-10z"/>
			</g>
		</g>
	</g>
	<g id="Layer">
		<g id="Layer">
			<g id="Layer">
				<path id="Layer" class="s6" d="m363.4 457.8v7.2h-2v-7.2zm-1-2.8q0.5 0 0.8 0.2 0.3 0.2 0.3 0.7 0 0.6-0.3 0.8-0.3 0.2-0.8 0.2-0.4 0-0.7-0.2-0.3-0.2-0.3-0.8 0-0.5 0.3-0.7 0.3-0.2 0.7-0.2z"/>
			</g>
		</g>
	</g>
	<g id="Layer">
		<g id="Layer">
			<g id="Layer">
				<path id="Layer" class="s6" d="m369.5 457.7q1.2 0 1.9 0.6 0.7 0.7 0.7 2v4.7h-2v-4.2q0-0.8-0.3-1.1-0.2-0.4-0.8-0.4-0.9 0-1.3 0.6-0.3 0.6-0.3 1.7v3.4h-2v-7.2h1.5l0.3 0.9h0.1q0.3-0.3 0.6-0.6 0.3-0.2 0.8-0.3 0.4-0.1 0.8-0.1z"/>
			</g>
		</g>
	</g>
	<g id="Layer">
		<g id="Layer">
			<g id="Layer">
				<path id="Layer" fill-rule="evenodd" class="s6" d="m376.2 468.2q-1.5 0-2.3-0.5-0.8-0.6-0.8-1.5 0-0.7 0.4-1.1 0.4-0.4 1.2-0.6-0.3-0.1-0.5-0.4-0.2-0.3-0.2-0.7 0-0.4 0.2-0.6 0.2-0.3 0.7-0.6-0.6-0.2-0.9-0.8-0.3-0.5-0.3-1.2 0-0.8 0.3-1.4 0.3-0.5 1-0.8 0.7-0.3 1.6-0.3 0.2 0 0.5 0 0.2 0 0.5 0.1 0.2 0 0.3 0h2.5v1l-1.1 0.3q0.1 0.3 0.2 0.5 0.1 0.3 0.1 0.6 0 1.2-0.8 1.8-0.8 0.7-2.3 0.7-0.3-0.1-0.6-0.1-0.2 0.1-0.3 0.2 0 0.2 0 0.3 0 0.2 0.1 0.3 0.1 0 0.3 0.1 0.3 0 0.6 0h1.3q1.2 0 1.8 0.6 0.6 0.5 0.6 1.4 0 1.3-1.1 2-1 0.7-3 0.7zm0.1-1.3q0.7 0 1.2-0.1 0.5-0.2 0.8-0.4 0.3-0.2 0.3-0.6 0-0.2-0.2-0.4-0.2-0.2-0.5-0.2-0.3-0.1-0.8-0.1h-1q-0.4 0-0.7 0.1-0.2 0.2-0.4 0.4-0.2 0.2-0.2 0.4 0 0.4 0.4 0.7 0.4 0.2 1.1 0.2zm0.3-5.5q0.6 0 0.8-0.3 0.3-0.3 0.3-0.9 0-0.7-0.3-1-0.2-0.3-0.8-0.3-0.5 0-0.8 0.3-0.3 0.3-0.3 1 0 0.6 0.3 0.9 0.3 0.3 0.8 0.3z"/>
			</g>
		</g>
	</g>
	<g id="Layer">
		<g id="Layer">
			<g id="Layer">
			</g>
		</g>
	</g>
	<g id="Layer">
		<g id="Layer">
			<g id="Layer">
				<path id="Layer" fill-rule="evenodd" class="s6" d="m388 457.7q1.4 0 2.2 0.6 0.7 0.6 0.8 1.9v4.8h-1.4l-0.4-1h-0.1q-0.3 0.4-0.6 0.7-0.3 0.2-0.7 0.3-0.4 0.2-1.1 0.2-0.6 0-1.1-0.3-0.5-0.2-0.8-0.7-0.3-0.5-0.3-1.3 0-1.2 0.8-1.7 0.8-0.6 2.4-0.6l1.3-0.1v-0.3q0-0.5-0.3-0.8-0.3-0.3-0.8-0.3-0.5 0-1.1 0.2-0.5 0.1-1 0.4l-0.6-1.4q0.6-0.3 1.3-0.4 0.7-0.2 1.5-0.2zm1 4h-0.8q-0.9 0-1.3 0.4-0.4 0.3-0.4 0.8 0 0.4 0.3 0.6 0.3 0.2 0.7 0.2 0.6 0 1.1-0.4 0.4-0.3 0.4-1z"/>
			</g>
		</g>
	</g>
	<g id="Layer">
		<g id="Layer">
			<g id="Layer">
				<path id="Layer" class="s6" d="m397.1 457.7q1.1 0 1.8 0.6 0.7 0.7 0.7 2v4.7h-1.9v-4.2q0-0.8-0.3-1.1-0.3-0.4-0.9-0.4-0.9 0-1.2 0.6-0.4 0.6-0.4 1.7v3.4h-1.9v-7.2h1.5l0.2 0.9h0.1q0.3-0.3 0.6-0.6 0.4-0.2 0.8-0.3 0.4-0.1 0.9-0.1z"/>
			</g>
		</g>
	</g>
	<g id="Layer">
		<g id="Layer">
			<g id="Layer">
				<path id="Layer" fill-rule="evenodd" class="s6" d="m403.9 465.2q-1.2 0-1.9-1-0.8-0.9-0.8-2.8 0-1.8 0.8-2.8 0.7-0.9 2-0.9 0.5 0 0.9 0.1 0.4 0.2 0.7 0.4 0.2 0.3 0.4 0.5h0.1q0-0.2-0.1-0.6 0-0.4 0-0.8v-2.3h1.9v10h-1.5l-0.4-0.9q-0.2 0.3-0.5 0.5-0.3 0.3-0.7 0.4-0.4 0.2-0.9 0.2zm0.7-1.6q0.8 0 1.1-0.5 0.4-0.5 0.4-1.4v-0.3q0-1-0.3-1.6-0.3-0.5-1.2-0.5-0.7 0-1.1 0.5-0.3 0.6-0.3 1.7 0 1 0.4 1.6 0.3 0.5 1 0.5z"/>
			</g>
		</g>
	</g>
	<g id="Layer">
		<g id="Layer">
			<g id="Layer">
				<path id="Layer" class="s6" d="m337.4 480.8v-9.4h2v7.7h3.8v1.7z"/>
			</g>
		</g>
	</g>
	<g id="Layer">
		<g id="Layer">
			<g id="Layer">
				<path id="Layer" fill-rule="evenodd" class="s6" d="m347.7 473.4q1 0 1.7 0.4 0.7 0.4 1.1 1.1 0.4 0.8 0.4 1.8v1h-4.6q0 0.8 0.5 1.3 0.4 0.4 1.3 0.4 0.7 0 1.2-0.1 0.6-0.1 1.2-0.4v1.5q-0.5 0.3-1.1 0.4-0.6 0.1-1.4 0.1-1.1 0-1.9-0.4-0.9-0.4-1.4-1.2-0.4-0.8-0.4-2.1 0-1.2 0.4-2.1 0.4-0.8 1.2-1.2 0.8-0.5 1.8-0.5zm0 1.4q-0.6 0-1 0.4-0.3 0.4-0.4 1.2h2.8q0-0.5-0.2-0.8-0.1-0.4-0.4-0.6-0.3-0.2-0.8-0.2z"/>
			</g>
		</g>
	</g>
	<g id="Layer">
		<g id="Layer">
			<g id="Layer">
				<path id="Layer" fill-rule="evenodd" class="s6" d="m355.5 473.4q1.4 0 2.2 0.7 0.8 0.6 0.8 1.9v4.8h-1.4l-0.4-1h-0.1q-0.2 0.4-0.6 0.6-0.3 0.3-0.7 0.4-0.4 0.1-1 0.1-0.7 0-1.2-0.2-0.5-0.3-0.8-0.8-0.3-0.5-0.3-1.3 0-1.1 0.8-1.7 0.8-0.5 2.5-0.6h1.2v-0.3q0-0.6-0.3-0.9-0.3-0.2-0.8-0.2-0.5 0-1 0.1-0.6 0.2-1 0.4l-0.7-1.3q0.6-0.3 1.3-0.5 0.7-0.2 1.5-0.2zm1 4l-0.8 0.1q-0.9 0-1.3 0.3-0.3 0.3-0.3 0.8 0 0.5 0.2 0.7 0.3 0.2 0.7 0.2 0.6 0 1.1-0.4 0.4-0.4 0.4-1.1z"/>
			</g>
		</g>
	</g>
	<g id="Layer">
		<g id="Layer">
			<g id="Layer">
				<path id="Layer" class="s6" d="m364.5 473.4q0.1 0 0.3 0 0.2 0.1 0.4 0.1l-0.2 1.8q-0.1 0-0.3 0-0.1 0-0.3 0-0.3 0-0.7 0.1-0.4 0.1-0.6 0.3-0.3 0.2-0.5 0.6-0.2 0.3-0.2 0.8v3.7h-1.9v-7.2h1.5l0.3 1.2h0.1q0.2-0.4 0.5-0.7 0.3-0.3 0.7-0.5 0.4-0.2 0.9-0.2z"/>
			</g>
		</g>
	</g>
	<g id="Layer">
		<g id="Layer">
			<g id="Layer">
				<path id="Layer" class="s6" d="m370.6 473.4q1.1 0 1.8 0.7 0.7 0.6 0.7 2v4.7h-1.9v-4.2q0-0.8-0.3-1.2-0.3-0.4-0.9-0.4-0.9 0-1.2 0.6-0.4 0.6-0.4 1.8v3.4h-1.9v-7.2h1.5l0.2 0.9h0.1q0.3-0.4 0.6-0.6 0.4-0.2 0.8-0.4 0.4-0.1 0.9-0.1z"/>
			</g>
		</g>
	</g>
	<g id="Layer">
		<g id="Layer">
			<g id="Layer">
				<path id="Layer" class="s6" d="m377.1 473.6v7.2h-2v-7.2zm-0.9-2.9q0.4 0 0.7 0.2 0.3 0.3 0.3 0.8 0 0.6-0.3 0.8-0.3 0.2-0.7 0.2-0.5 0-0.8-0.2-0.3-0.2-0.3-0.8 0-0.5 0.3-0.8 0.3-0.2 0.8-0.2z"/>
			</g>
		</g>
	</g>
	<g id="Layer">
		<g id="Layer">
			<g id="Layer">
				<path id="Layer" class="s6" d="m383.3 473.4q1.1 0 1.8 0.7 0.7 0.6 0.7 2v4.7h-1.9v-4.2q0-0.8-0.3-1.2-0.3-0.4-0.9-0.4-0.9 0-1.2 0.6-0.4 0.6-0.4 1.8v3.4h-1.9v-7.2h1.5l0.2 0.9h0.1q0.3-0.4 0.6-0.6 0.4-0.2 0.8-0.4 0.4-0.1 0.9-0.1z"/>
			</g>
		</g>
	</g>
	<g id="Layer">
		<g id="Layer">
			<g id="Layer">
				<path id="Layer" fill-rule="evenodd" class="s6" d="m390 483.9q-1.6 0-2.4-0.5-0.8-0.5-0.8-1.5 0-0.6 0.4-1 0.5-0.5 1.3-0.7-0.4-0.1-0.6-0.4-0.2-0.3-0.2-0.6 0-0.4 0.2-0.7 0.3-0.3 0.7-0.5-0.5-0.3-0.9-0.8-0.3-0.6-0.3-1.3 0-0.8 0.3-1.3 0.4-0.6 1-0.9 0.7-0.3 1.7-0.3 0.1 0 0.4 0.1 0.3 0 0.5 0 0.2 0 0.3 0.1h2.5v1l-1.1 0.3q0.1 0.2 0.2 0.5 0.1 0.2 0.1 0.5 0 1.2-0.8 1.9-0.8 0.6-2.3 0.6-0.3 0-0.6-0.1-0.1 0.2-0.2 0.3-0.1 0.1-0.1 0.3 0 0.1 0.1 0.2 0.1 0.1 0.4 0.1 0.2 0.1 0.6 0.1h1.2q1.2 0 1.8 0.5 0.6 0.5 0.6 1.5 0 1.3-1 1.9-1.1 0.7-3 0.7zm0-1.2q0.7 0 1.2-0.2 0.5-0.1 0.8-0.3 0.3-0.3 0.3-0.6 0-0.3-0.2-0.4-0.1-0.2-0.4-0.3-0.4 0-0.9 0h-1q-0.3 0-0.6 0.1-0.3 0.1-0.5 0.3-0.2 0.2-0.2 0.5 0 0.4 0.4 0.6 0.4 0.3 1.1 0.3zm0.4-5.5q0.5 0 0.8-0.3 0.2-0.4 0.2-1 0-0.6-0.2-1-0.3-0.3-0.8-0.3-0.6 0-0.9 0.3-0.2 0.4-0.2 1 0 0.6 0.2 1 0.3 0.3 0.9 0.3z"/>
			</g>
		</g>
	</g>
	<g id="Layer">
		<g id="Layer">
			<g id="Layer">
				<path id="Layer" class="s7" d="m216.7 414.2v-9.4h2v9.4z"/>
			</g>
		</g>
	</g>
	<g id="Layer">
		<g id="Layer">
			<g id="Layer">
				<path id="Layer" class="s7" d="m225 406.9q1.2 0 1.9 0.6 0.7 0.6 0.7 2v4.7h-2v-4.2q0-0.8-0.3-1.2-0.2-0.4-0.8-0.4-0.9 0-1.3 0.7-0.3 0.6-0.3 1.7v3.4h-2v-7.2h1.5l0.3 0.9h0.1q0.2-0.3 0.6-0.6 0.3-0.2 0.7-0.3 0.5-0.1 0.9-0.1z"/>
			</g>
		</g>
	</g>
	<g id="Layer">
		<g id="Layer">
			<g id="Layer">
				<path id="Layer" class="s7" d="m232.5 414.3q-1 0-1.8-0.4-0.8-0.3-1.1-1.2-0.4-0.8-0.4-2.1 0-1.3 0.4-2.1 0.5-0.9 1.3-1.2 0.7-0.4 1.8-0.4 0.7 0 1.3 0.1 0.5 0.2 0.9 0.4l-0.5 1.5q-0.5-0.2-0.9-0.3-0.4-0.1-0.8-0.1-0.5 0-0.9 0.2-0.3 0.2-0.5 0.7-0.1 0.5-0.1 1.2 0 0.8 0.1 1.2 0.2 0.5 0.6 0.7 0.3 0.2 0.8 0.2 0.6 0 1.1-0.1 0.5-0.2 0.9-0.5v1.7q-0.4 0.3-0.9 0.4-0.5 0.1-1.3 0.1z"/>
			</g>
		</g>
	</g>
	<g id="Layer">
		<g id="Layer">
			<g id="Layer">
				<path id="Layer" class="s7" d="m238.4 414.2h-2v-10h2z"/>
			</g>
		</g>
	</g>
	<g id="Layer">
		<g id="Layer">
			<g id="Layer">
				<path id="Layer" class="s7" d="m247 407v7.2h-1.5l-0.2-0.9h-0.2q-0.2 0.4-0.5 0.6-0.4 0.2-0.8 0.3-0.4 0.1-0.9 0.1-0.7 0-1.3-0.2-0.6-0.3-0.9-0.9-0.3-0.6-0.3-1.5v-4.7h1.9v4.2q0 0.8 0.3 1.2 0.3 0.4 0.9 0.4 0.6 0 0.9-0.3 0.4-0.3 0.5-0.8 0.2-0.5 0.2-1.3v-3.4z"/>
			</g>
		</g>
	</g>
	<g id="Layer">
		<g id="Layer">
			<g id="Layer">
				<path id="Layer" class="s7" d="m254.1 412.1q0 0.7-0.3 1.2-0.4 0.5-1.1 0.8-0.6 0.2-1.7 0.2-0.7 0-1.3-0.1-0.5-0.1-1-0.3v-1.6q0.5 0.3 1.2 0.4 0.7 0.2 1.2 0.2 0.6 0 0.8-0.2 0.3-0.1 0.3-0.4 0-0.2-0.1-0.3-0.1-0.2-0.5-0.4-0.3-0.2-1-0.5-0.7-0.2-1.1-0.5-0.4-0.3-0.6-0.7-0.3-0.4-0.3-1 0-1 0.8-1.5 0.8-0.5 2.1-0.5 0.7 0 1.3 0.1 0.6 0.1 1.2 0.4l-0.6 1.5q-0.5-0.3-1-0.4-0.4-0.2-0.9-0.2-0.5 0-0.7 0.1-0.2 0.2-0.2 0.4 0 0.2 0.1 0.3 0.1 0.1 0.4 0.3 0.4 0.2 1 0.4 0.6 0.3 1.1 0.6 0.4 0.2 0.7 0.6 0.2 0.4 0.2 1.1z"/>
			</g>
		</g>
	</g>
	<g id="Layer">
		<g id="Layer">
			<g id="Layer">
				<path id="Layer" class="s7" d="m257.6 407v7.2h-2v-7.2zm-0.9-2.8q0.4 0 0.7 0.2 0.3 0.2 0.3 0.7 0 0.6-0.3 0.8-0.3 0.2-0.7 0.2-0.5 0-0.8-0.2-0.3-0.2-0.3-0.8 0-0.5 0.3-0.7 0.3-0.2 0.8-0.2z"/>
			</g>
		</g>
	</g>
	<g id="Layer">
		<g id="Layer">
			<g id="Layer">
				<path id="Layer" class="s7" d="m261.4 414.2l-2.8-7.2h2.1l1.4 4.1q0.1 0.4 0.2 0.8 0 0.4 0.1 0.7 0-0.4 0.1-0.7 0.1-0.4 0.2-0.8l1.4-4.1h2.1l-2.8 7.2z"/>
			</g>
		</g>
	</g>
	<g id="Layer">
		<g id="Layer">
			<g id="Layer">
				<path id="Layer" fill-rule="evenodd" class="s7" d="m270.1 406.9q1 0 1.8 0.4 0.7 0.3 1.1 1.1 0.4 0.7 0.4 1.7v1h-4.7q0.1 0.8 0.5 1.3 0.5 0.5 1.3 0.5 0.7 0 1.3-0.2 0.6-0.1 1.2-0.4v1.5q-0.6 0.3-1.2 0.4-0.5 0.1-1.4 0.1-1.1 0-1.9-0.4-0.8-0.4-1.3-1.2-0.5-0.8-0.5-2 0-1.3 0.5-2.1 0.4-0.9 1.2-1.3 0.7-0.4 1.7-0.4zm0.1 1.4q-0.6 0-1 0.3-0.4 0.4-0.4 1.2h2.7q0-0.4-0.1-0.8-0.2-0.3-0.5-0.5-0.3-0.2-0.7-0.2z"/>
			</g>
		</g>
	</g>
	<g id="Layer">
		<g id="Layer">
			<g id="Layer">
				<path id="Layer" class="s7" d="m216.9 430v-9.5h2v7.8h3.8v1.7z"/>
			</g>
		</g>
	</g>
	<g id="Layer">
		<g id="Layer">
			<g id="Layer">
				<path id="Layer" fill-rule="evenodd" class="s7" d="m227.2 422.6q1 0 1.7 0.4 0.7 0.4 1.1 1.1 0.4 0.7 0.4 1.8v1h-4.7q0.1 0.8 0.5 1.3 0.5 0.4 1.4 0.4 0.6 0 1.2-0.1 0.6-0.2 1.2-0.4v1.5q-0.5 0.3-1.1 0.4-0.6 0.1-1.4 0.1-1.1 0-2-0.4-0.8-0.4-1.3-1.2-0.4-0.9-0.4-2.1 0-1.3 0.4-2.1 0.4-0.8 1.2-1.3 0.8-0.4 1.8-0.4zm0 1.4q-0.6 0-1 0.4-0.3 0.4-0.4 1.1h2.8q0-0.4-0.2-0.7-0.2-0.4-0.4-0.6-0.3-0.2-0.8-0.2z"/>
			</g>
		</g>
	</g>
	<g id="Layer">
		<g id="Layer">
			<g id="Layer">
				<path id="Layer" fill-rule="evenodd" class="s7" d="m235 422.6q1.4 0 2.2 0.6 0.8 0.7 0.8 2v4.8h-1.4l-0.4-1h-0.1q-0.3 0.4-0.6 0.6-0.3 0.3-0.7 0.4-0.4 0.1-1.1 0.1-0.6 0-1.1-0.2-0.5-0.3-0.8-0.8-0.3-0.5-0.3-1.3 0-1.1 0.8-1.7 0.8-0.5 2.4-0.6h1.3v-0.3q0-0.6-0.3-0.9-0.3-0.2-0.8-0.2-0.5 0-1.1 0.1-0.5 0.2-1 0.4l-0.6-1.3q0.6-0.3 1.3-0.5 0.7-0.2 1.5-0.2zm1 4h-0.8q-0.9 0.1-1.3 0.4-0.4 0.3-0.4 0.8 0 0.5 0.3 0.7 0.3 0.1 0.7 0.1 0.6 0 1.1-0.3 0.4-0.4 0.4-1.1z"/>
			</g>
		</g>
	</g>
	<g id="Layer">
		<g id="Layer">
			<g id="Layer">
				<path id="Layer" class="s7" d="m244 422.6q0.1 0 0.3 0 0.2 0 0.4 0.1l-0.2 1.8q-0.1 0-0.3 0-0.1 0-0.3 0-0.4 0-0.7 0.1-0.4 0-0.7 0.3-0.2 0.2-0.4 0.5-0.2 0.4-0.2 0.9v3.7h-1.9v-7.2h1.5l0.2 1.2h0.1q0.3-0.4 0.6-0.7 0.3-0.3 0.7-0.5 0.4-0.2 0.9-0.2z"/>
			</g>
		</g>
	</g>
	<g id="Layer">
		<g id="Layer">
			<g id="Layer">
				<path id="Layer" class="s7" d="m250.1 422.6q1.1 0 1.8 0.7 0.7 0.6 0.7 2v4.7h-2v-4.2q0-0.8-0.2-1.2-0.3-0.4-0.9-0.4-0.9 0-1.2 0.6-0.4 0.6-0.4 1.8v3.4h-1.9v-7.2h1.5l0.2 0.9h0.1q0.3-0.4 0.6-0.6 0.4-0.3 0.8-0.4 0.4-0.1 0.9-0.1z"/>
			</g>
		</g>
	</g>
	<g id="Layer">
		<g id="Layer">
			<g id="Layer">
				<path id="Layer" class="s7" d="m256.6 422.8v7.2h-2v-7.2zm-1-2.9q0.5 0 0.8 0.2 0.3 0.2 0.3 0.8 0 0.5-0.3 0.7-0.3 0.3-0.8 0.3-0.4 0-0.7-0.3-0.3-0.2-0.3-0.7 0-0.6 0.3-0.8 0.3-0.2 0.7-0.2z"/>
			</g>
		</g>
	</g>
	<g id="Layer">
		<g id="Layer">
			<g id="Layer">
				<path id="Layer" class="s7" d="m262.8 422.6q1.1 0 1.8 0.7 0.7 0.6 0.7 2v4.7h-2v-4.2q0-0.8-0.2-1.2-0.3-0.4-0.9-0.4-0.9 0-1.2 0.6-0.4 0.6-0.4 1.8v3.4h-1.9v-7.2h1.5l0.2 0.9h0.1q0.3-0.4 0.6-0.6 0.4-0.3 0.8-0.4 0.4-0.1 0.9-0.1z"/>
			</g>
		</g>
	</g>
	<g id="Layer">
		<g id="Layer">
			<g id="Layer">
				<path id="Layer" fill-rule="evenodd" class="s7" d="m269.4 433.1q-1.5 0-2.3-0.5-0.8-0.5-0.8-1.5 0-0.6 0.4-1.1 0.4-0.4 1.2-0.6-0.3-0.1-0.5-0.4-0.2-0.3-0.2-0.6 0-0.4 0.2-0.7 0.3-0.3 0.7-0.6-0.6-0.2-0.9-0.7-0.3-0.6-0.3-1.3 0-0.8 0.3-1.3 0.4-0.6 1-0.9 0.7-0.3 1.6-0.3 0.2 0 0.5 0 0.3 0.1 0.5 0.1 0.2 0 0.3 0.1h2.5v1l-1.1 0.2q0.1 0.3 0.2 0.6 0.1 0.2 0.1 0.5 0 1.2-0.8 1.8-0.8 0.7-2.3 0.7-0.3 0-0.6-0.1-0.2 0.2-0.2 0.3-0.1 0.1-0.1 0.2 0 0.2 0.1 0.3 0.1 0.1 0.4 0.1 0.2 0.1 0.6 0.1h1.2q1.2 0 1.8 0.5 0.6 0.5 0.6 1.5 0 1.2-1 1.9-1.1 0.7-3.1 0.7zm0.1-1.2q0.7 0 1.2-0.2 0.5-0.1 0.8-0.4 0.3-0.2 0.3-0.5 0-0.3-0.2-0.5-0.1-0.1-0.5-0.2-0.3 0-0.8 0h-1q-0.3 0-0.6 0.1-0.3 0.1-0.5 0.3-0.2 0.2-0.2 0.5 0 0.4 0.4 0.6 0.4 0.3 1.1 0.3zm0.3-5.5q0.6 0 0.8-0.4 0.3-0.3 0.3-0.9 0-0.6-0.3-1-0.2-0.3-0.8-0.3-0.5 0-0.8 0.3-0.2 0.4-0.2 1 0 0.6 0.2 0.9 0.3 0.4 0.8 0.4z"/>
			</g>
		</g>
	</g>
	<g id="Layer">
		<g id="Layer">
			<g id="Layer">
				<path id="Layer" class="s6" d="m60.4 254.8q-0.8 0-1.4 0.3-0.6 0.4-1.1 1-0.4 0.6-0.6 1.5-0.2 0.9-0.2 2.1 0 1.5 0.3 2.5 0.4 1.1 1.2 1.6 0.8 0.5 2 0.5 1.1 0 2.1-0.3 1-0.3 2.1-0.7v3.7q-1.1 0.5-2.2 0.7-1.2 0.2-2.5 0.2-2.6 0-4.3-1-1.7-1.1-2.5-2.9-0.8-1.9-0.8-4.4 0-1.8 0.6-3.4 0.5-1.5 1.5-2.6 1-1.1 2.5-1.8 1.4-0.6 3.3-0.6 1.2 0 2.5 0.3 1.3 0.2 2.6 0.9l-1.4 3.4q-0.9-0.4-1.8-0.7-0.9-0.3-1.9-0.3z"/>
			</g>
		</g>
	</g>
	<g id="Layer">
		<g id="Layer">
			<g id="Layer">
				<path id="Layer" fill-rule="evenodd" class="s6" d="m79.7 261.4q0 1.6-0.4 2.8-0.5 1.2-1.3 2-0.8 0.9-2 1.3-1.2 0.4-2.6 0.4-1.4 0-2.5-0.4-1.2-0.4-2-1.3-0.9-0.8-1.3-2-0.5-1.2-0.5-2.8 0-2.1 0.8-3.6 0.7-1.4 2.2-2.2 1.4-0.7 3.4-0.7 1.8 0 3.2 0.7 1.4 0.8 2.2 2.2 0.8 1.5 0.8 3.6zm-8.2 0q0 1.1 0.2 1.8 0.2 0.7 0.6 1.1 0.5 0.4 1.1 0.4 0.7 0 1.1-0.4 0.4-0.4 0.6-1.1 0.2-0.7 0.2-1.8 0-1.1-0.2-1.8-0.2-0.7-0.6-1.1-0.4-0.4-1.1-0.4-1 0-1.4 0.9-0.5 0.8-0.5 2.4z"/>
			</g>
		</g>
	</g>
	<g id="Layer">
		<g id="Layer">
			<g id="Layer">
				<path id="Layer" class="s6" d="m90.1 254.9q1.9 0 3.2 1.1 1.2 1.1 1.2 3.5v8.2h-4.4v-6.9q0-1.2-0.3-1.9-0.4-0.6-1.2-0.6-1.2 0-1.6 1-0.5 1-0.5 2.9v5.5h-4.3v-12.6h3.3l0.6 1.7h0.1q0.4-0.6 1-1.1 0.5-0.4 1.3-0.6 0.7-0.2 1.6-0.2z"/>
			</g>
		</g>
	</g>
	<g id="Layer">
		<g id="Layer">
			<g id="Layer">
				<path id="Layer" class="s6" d="m106.8 263.8q0 1.2-0.5 2.2-0.5 0.9-1.7 1.4-1.2 0.5-3.1 0.5-1.4 0-2.4-0.1-1.1-0.1-2.2-0.6v-3.5q1.2 0.6 2.4 0.8 1.3 0.3 2 0.3 0.7 0 1.1-0.2 0.3-0.1 0.3-0.5 0-0.2-0.2-0.4-0.2-0.2-0.8-0.5-0.6-0.2-1.7-0.7-1-0.4-1.7-0.9-0.7-0.5-1.1-1.2-0.3-0.8-0.3-1.8 0-1.8 1.4-2.8 1.5-0.9 3.8-0.9 1.2 0 2.3 0.3 1.1 0.2 2.3 0.8l-1.2 2.8q-0.9-0.5-1.9-0.7-0.9-0.3-1.5-0.3-0.5 0-0.8 0.2-0.2 0.1-0.2 0.3 0 0.3 0.1 0.5 0.2 0.1 0.8 0.4 0.5 0.2 1.6 0.6 1.1 0.5 1.8 1 0.7 0.5 1.1 1.2 0.3 0.7 0.3 1.8z"/>
			</g>
		</g>
	</g>
	<g id="Layer">
		<g id="Layer">
			<g id="Layer">
				<path id="Layer" class="s6" d="m113.6 255.1v12.6h-4.3v-12.6zm-2.2-5.1q0.9 0 1.6 0.4 0.7 0.4 0.7 1.6 0 1.1-0.7 1.5-0.7 0.4-1.6 0.4-1 0-1.6-0.4-0.7-0.4-0.7-1.5 0-1.2 0.7-1.6 0.6-0.4 1.6-0.4z"/>
			</g>
		</g>
	</g>
	<g id="Layer">
		<g id="Layer">
			<g id="Layer">
				<path id="Layer" fill-rule="evenodd" class="s6" d="m120.6 267.9q-2 0-3.3-1.6-1.2-1.7-1.2-4.9 0-3.2 1.3-4.9 1.3-1.6 3.3-1.6 0.9 0 1.5 0.2 0.6 0.3 1 0.7 0.5 0.4 0.8 0.9h0.1q-0.1-0.4-0.1-1.3-0.1-0.8-0.1-1.6v-3.4h4.4v17.3h-3.3l-0.9-1.6h-0.2q-0.3 0.5-0.8 0.9-0.4 0.5-1 0.7-0.7 0.2-1.5 0.2zm1.7-3.4q1.1 0 1.5-0.7 0.4-0.6 0.5-2v-0.3q0-1.5-0.5-2.3-0.4-0.8-1.5-0.8-0.8 0-1.3 0.8-0.5 0.7-0.5 2.3 0 1.6 0.5 2.3 0.5 0.7 1.3 0.7z"/>
			</g>
		</g>
	</g>
	<g id="Layer">
		<g id="Layer">
			<g id="Layer">
				<path id="Layer" fill-rule="evenodd" class="s6" d="m137 254.9q1.8 0 3.1 0.6 1.4 0.7 2.1 2 0.7 1.2 0.7 3.2v1.9h-7.8q0.1 1 0.8 1.6 0.7 0.6 2 0.6 1.2 0 2.2-0.2 0.9-0.2 2-0.7v3.1q-0.9 0.5-2 0.7-1.1 0.2-2.7 0.2-1.9 0-3.4-0.6-1.5-0.7-2.4-2.1-0.9-1.5-0.9-3.7 0-2.3 0.8-3.7 0.8-1.5 2.2-2.2 1.4-0.7 3.3-0.7zm0.1 2.9q-0.8 0-1.3 0.5-0.5 0.5-0.6 1.5h3.8q-0.1-0.5-0.3-1-0.2-0.4-0.6-0.7-0.4-0.3-1-0.3z"/>
			</g>
		</g>
	</g>
	<g id="Layer">
		<g id="Layer">
			<g id="Layer">
				<path id="Layer" class="s6" d="m153 254.9q0.3 0 0.7 0 0.4 0.1 0.6 0.1l-0.4 4.1q-0.2 0-0.5-0.1-0.4 0-1 0-0.4 0-0.9 0.1-0.4 0-0.8 0.3-0.5 0.3-0.7 0.8-0.3 0.5-0.3 1.3v6.2h-4.3v-12.6h3.2l0.7 2h0.2q0.3-0.6 0.9-1.1 0.5-0.5 1.2-0.8 0.7-0.3 1.4-0.3z"/>
			</g>
		</g>
	</g>
	<g id="Layer">
		<g id="Layer">
			<g id="Layer">
				<path id="Layer" fill-rule="evenodd" class="s6" d="m162.2 254.9q2.4 0 3.7 1.2 1.4 1.1 1.4 3.4v8.2h-3l-0.9-1.7q-0.6 0.7-1.1 1.1-0.6 0.4-1.3 0.6-0.7 0.2-1.8 0.2-1.1 0-2-0.4-0.8-0.5-1.3-1.3-0.5-0.9-0.5-2.3 0-2.1 1.4-3 1.4-1 4-1.1l2.1-0.1v-0.2q0-0.8-0.4-1.2-0.4-0.3-1.1-0.3-0.7 0-1.7 0.2-0.9 0.3-1.8 0.7l-1.3-2.9q1.1-0.5 2.5-0.8 1.4-0.3 3.1-0.3zm0.8 7.2h-1q-1.2 0.1-1.7 0.4-0.5 0.4-0.5 1.1 0 0.7 0.3 1 0.4 0.3 1 0.3 0.7 0 1.3-0.5 0.6-0.5 0.6-1.3z"/>
			</g>
		</g>
	</g>
	<g id="Layer">
		<g id="Layer">
			<g id="Layer">
				<path id="Layer" class="s6" d="m176.4 264.5q0.6 0 1.1-0.1 0.5-0.2 1-0.3v3.1q-0.7 0.3-1.5 0.5-0.8 0.2-2 0.2-1.2 0-2.2-0.3-0.9-0.4-1.4-1.4-0.5-0.9-0.5-2.6v-5.2h-1.6v-1.8l2-1.4 1.1-2.6h2.8v2.5h3.1v3.3h-3.1v4.9q0 0.6 0.4 0.9 0.3 0.3 0.8 0.3z"/>
			</g>
		</g>
	</g>
	<g id="Layer">
		<g id="Layer">
			<g id="Layer">
				<path id="Layer" class="s6" d="m185.1 255.1v12.6h-4.3v-12.6zm-2.2-5.1q0.9 0 1.6 0.4 0.7 0.4 0.7 1.6 0 1.1-0.7 1.5-0.7 0.4-1.6 0.4-1 0-1.6-0.4-0.7-0.4-0.7-1.5 0-1.2 0.7-1.6 0.6-0.4 1.6-0.4z"/>
			</g>
		</g>
	</g>
	<g id="Layer">
		<g id="Layer">
			<g id="Layer">
				<path id="Layer" fill-rule="evenodd" class="s6" d="m200.2 261.4q0 1.6-0.5 2.8-0.4 1.2-1.2 2-0.8 0.9-2 1.3-1.2 0.4-2.6 0.4-1.4 0-2.5-0.4-1.2-0.4-2-1.3-0.9-0.8-1.4-2-0.4-1.2-0.4-2.8 0-2.1 0.8-3.6 0.7-1.4 2.1-2.2 1.5-0.7 3.4-0.7 1.8 0 3.2 0.7 1.5 0.8 2.3 2.2 0.8 1.5 0.8 3.6zm-8.2 0q0 1.1 0.2 1.8 0.2 0.7 0.6 1.1 0.4 0.4 1.1 0.4 0.7 0 1.1-0.4 0.4-0.4 0.6-1.1 0.1-0.7 0.1-1.8 0-1.1-0.1-1.8-0.2-0.7-0.6-1.1-0.4-0.4-1.1-0.4-1 0-1.5 0.9-0.4 0.8-0.4 2.4z"/>
			</g>
		</g>
	</g>
	<g id="Layer">
		<g id="Layer">
			<g id="Layer">
				<path id="Layer" class="s6" d="m210.5 254.9q2 0 3.2 1.1 1.3 1.1 1.3 3.5v8.2h-4.4v-6.9q0-1.2-0.4-1.9-0.3-0.6-1.1-0.6-1.2 0-1.7 1-0.4 1-0.4 2.9v5.5h-4.4v-12.6h3.3l0.6 1.7h0.2q0.4-0.6 0.9-1.1 0.6-0.4 1.3-0.6 0.7-0.2 1.6-0.2z"/>
			</g>
		</g>
	</g>
	<g id="Layer">
		<g id="Layer">
			<g id="Layer">
				<path id="Layer" class="s6" d="m227.3 263.8q0 1.2-0.5 2.2-0.6 0.9-1.8 1.4-1.1 0.5-3 0.5-1.4 0-2.4-0.1-1.1-0.1-2.2-0.6v-3.5q1.2 0.6 2.4 0.8 1.2 0.3 2 0.3 0.7 0 1-0.2 0.4-0.1 0.4-0.5 0-0.2-0.3-0.4-0.2-0.2-0.8-0.5-0.6-0.2-1.6-0.7-1.1-0.4-1.8-0.9-0.7-0.5-1-1.2-0.3-0.8-0.3-1.8 0-1.8 1.4-2.8 1.4-0.9 3.8-0.9 1.2 0 2.3 0.3 1.1 0.2 2.3 0.8l-1.2 2.8q-0.9-0.5-1.9-0.7-0.9-0.3-1.5-0.3-0.5 0-0.8 0.2-0.3 0.1-0.3 0.3 0 0.3 0.2 0.5 0.2 0.1 0.8 0.4 0.5 0.2 1.6 0.6 1 0.5 1.8 1 0.7 0.5 1 1.2 0.4 0.7 0.4 1.8z"/>
			</g>
		</g>
	</g>
	<g id="Layer">
		<g id="Layer">
			<g id="Layer">
				<path id="Layer" class="s6" d="m47 289.9h-2.7v9.3h-4.3v-9.3h-1.7v-2.2l1.8-1v-0.2q0-1.7 0.4-2.7 0.4-1.1 1.4-1.5 0.9-0.5 2.4-0.5 1 0 1.8 0.1 0.8 0.2 1.7 0.5l-1 2.8q-0.3-0.1-0.7-0.2-0.4 0-0.8 0-0.5 0-0.8 0.3-0.2 0.3-0.2 1v0.3h2.7z"/>
			</g>
		</g>
	</g>
	<g id="Layer">
		<g id="Layer">
			<g id="Layer">
				<path id="Layer" fill-rule="evenodd" class="s6" d="m60.8 292.9q0 1.6-0.5 2.8-0.4 1.2-1.2 2-0.9 0.9-2 1.3-1.2 0.4-2.7 0.4-1.3 0-2.5-0.4-1.1-0.4-2-1.3-0.8-0.8-1.3-2-0.4-1.2-0.4-2.8 0-2.1 0.7-3.6 0.8-1.4 2.2-2.2 1.4-0.7 3.4-0.7 1.8 0 3.2 0.7 1.4 0.8 2.2 2.2 0.9 1.5 0.9 3.6zm-8.2 0q0 1.1 0.2 1.8 0.2 0.7 0.6 1.1 0.4 0.4 1.1 0.4 0.7 0 1.1-0.4 0.4-0.4 0.5-1.1 0.2-0.7 0.2-1.8 0-1.1-0.2-1.8-0.1-0.7-0.5-1.1-0.5-0.4-1.1-0.4-1 0-1.5 0.9-0.4 0.8-0.4 2.4z"/>
			</g>
		</g>
	</g>
	<g id="Layer">
		<g id="Layer">
			<g id="Layer">
				<path id="Layer" class="s6" d="m70.8 286.4q0.4 0 0.8 0 0.4 0.1 0.6 0.1l-0.4 4.1q-0.2 0-0.6-0.1-0.3 0-0.9 0-0.4 0-0.9 0.1-0.5 0-0.9 0.3-0.4 0.3-0.7 0.8-0.2 0.5-0.2 1.3v6.2h-4.4v-12.6h3.3l0.6 2h0.2q0.4-0.6 0.9-1.1 0.6-0.5 1.3-0.8 0.6-0.3 1.3-0.3z"/>
			</g>
		</g>
	</g>
	<g id="Layer">
		<g id="Layer">
			<g id="Layer">
			</g>
		</g>
	</g>
	<g id="Layer">
		<g id="Layer">
			<g id="Layer">
				<path id="Layer" class="s6" d="m93.9 282.9v9.8q0 2.1-0.8 3.6-0.7 1.5-2.3 2.3-1.5 0.8-3.9 0.8-3.4 0-5.1-1.7-1.8-1.7-1.8-4.9v-9.9h4.4v9.6q0 1.7 0.7 2.5 0.6 0.8 1.9 0.8 0.9 0 1.4-0.4 0.6-0.3 0.9-1 0.2-0.8 0.2-1.9v-9.6z"/>
			</g>
		</g>
	</g>
	<g id="Layer">
		<g id="Layer">
			<g id="Layer">
				<path id="Layer" class="s6" d="m106.4 295.3q0 1.2-0.5 2.2-0.5 0.9-1.7 1.4-1.2 0.5-3.1 0.5-1.3 0-2.4-0.1-1.1-0.1-2.1-0.6v-3.5q1.1 0.6 2.4 0.8 1.2 0.3 1.9 0.3 0.8 0 1.1-0.2 0.3-0.1 0.3-0.5 0-0.2-0.2-0.4-0.2-0.2-0.8-0.5-0.6-0.2-1.6-0.7-1.1-0.4-1.8-0.9-0.7-0.5-1-1.2-0.4-0.8-0.4-1.8 0-1.8 1.4-2.8 1.5-0.9 3.8-0.9 1.3 0 2.4 0.3 1.1 0.2 2.3 0.8l-1.2 2.8q-1-0.5-1.9-0.7-1-0.3-1.6-0.3-0.5 0-0.7 0.2-0.3 0.1-0.3 0.3 0 0.3 0.2 0.5 0.2 0.1 0.7 0.4 0.6 0.2 1.6 0.6 1.1 0.5 1.8 1 0.7 0.5 1.1 1.2 0.3 0.7 0.3 1.8z"/>
			</g>
		</g>
	</g>
	<g id="Layer">
		<g id="Layer">
			<g id="Layer">
				<path id="Layer" class="s6" d="m113.2 286.6v12.6h-4.3v-12.6zm-2.2-5.1q1 0 1.7 0.4 0.7 0.4 0.7 1.6 0 1.1-0.7 1.5-0.7 0.4-1.7 0.4-0.9 0-1.6-0.4-0.7-0.4-0.7-1.5 0-1.2 0.7-1.6 0.7-0.4 1.6-0.4z"/>
			</g>
		</g>
	</g>
	<g id="Layer">
		<g id="Layer">
			<g id="Layer">
				<path id="Layer" class="s6" d="m124.2 286.4q1.9 0 3.1 1.1 1.3 1.1 1.3 3.5v8.2h-4.4v-6.9q0-1.2-0.3-1.9-0.4-0.6-1.2-0.6-1.2 0-1.7 1-0.4 1-0.4 2.9v5.5h-4.3v-12.6h3.2l0.6 1.7h0.2q0.4-0.6 1-1.1 0.5-0.4 1.2-0.6 0.8-0.2 1.7-0.2z"/>
			</g>
		</g>
	</g>
	<g id="Layer">
		<g id="Layer">
			<g id="Layer">
				<path id="Layer" fill-rule="evenodd" class="s6" d="m135.8 304.7q-2.7 0-4.1-0.9-1.5-0.9-1.5-2.6 0-1.1 0.7-1.8 0.7-0.8 2.2-1.1-0.6-0.2-1.1-0.8-0.4-0.5-0.4-1.1 0-0.6 0.3-1 0.4-0.5 1.4-1.1-1-0.4-1.6-1.3-0.5-1-0.5-2.3 0-1.4 0.6-2.3 0.6-1 1.8-1.5 1.3-0.5 3-0.5 0.2 0 0.7 0 0.5 0.1 1 0.1 0.5 0.1 0.7 0.1h4.4v2.1l-1.7 0.6q0.2 0.4 0.3 0.7 0.1 0.4 0.1 0.8 0 2.1-1.5 3.2-1.4 1.1-4.2 1.1-0.8 0-1.2-0.1 0 0.2-0.1 0.3 0 0.2 0 0.3 0 0.2 0.3 0.4 0.3 0.1 0.7 0.2 0.5 0.1 0.9 0.1h2.1q2.1 0 3.2 0.9 1 0.8 1 2.6 0 2.3-1.9 3.6-2 1.3-5.6 1.3zm0.2-2.7q0.8 0 1.6-0.2 0.8-0.1 1.4-0.4 0.5-0.3 0.5-0.8 0-0.4-0.3-0.6-0.3-0.2-0.8-0.3-0.5 0-1.1 0h-1.7q-0.5 0-0.9 0.1-0.3 0.1-0.6 0.4-0.2 0.3-0.2 0.6 0 0.5 0.6 0.9 0.6 0.3 1.5 0.3zm0.6-9.3q0.7 0 1-0.5 0.3-0.5 0.3-1.4 0-1-0.3-1.5-0.3-0.5-1-0.5-0.6 0-1 0.5-0.3 0.5-0.3 1.4 0 1 0.3 1.5 0.4 0.5 1 0.5z"/>
			</g>
		</g>
	</g>
	<g id="Layer">
		<g id="Layer">
			<g id="Layer">
			</g>
		</g>
	</g>
	<g id="Layer">
		<g id="Layer">
			<g id="Layer">
				<path id="Layer" fill-rule="evenodd" class="s6" d="m161.5 299.2l-0.8-3h-5.3l-0.8 3h-4.9l5.4-16.3h5.8l5.4 16.3zm-1.7-6.6l-0.7-2.7q-0.1-0.4-0.4-1.2-0.2-0.9-0.4-1.7-0.2-0.9-0.3-1.4-0.1 0.5-0.3 1.3-0.2 0.9-0.4 1.7-0.2 0.8-0.3 1.3l-0.7 2.7z"/>
			</g>
		</g>
	</g>
	<g id="Layer">
		<g id="Layer">
			<g id="Layer">
				<path id="Layer" class="s6" d="m168.1 299.2v-16.3h4.4v16.3z"/>
			</g>
		</g>
	</g>
	<g id="Layer">
		<g id="Layer">
			<g id="Layer">
			</g>
		</g>
	</g>
	<g id="Layer">
		<g id="Layer">
			<g id="Layer">
				<path id="Layer" class="s6" d="m189.1 299.2h-4.4v-12.7h-4v-3.6h12.3v3.6h-3.9z"/>
			</g>
		</g>
	</g>
	<g id="Layer">
		<g id="Layer">
			<g id="Layer">
				<path id="Layer" fill-rule="evenodd" class="s6" d="m207.1 292.9q0 1.6-0.4 2.8-0.4 1.2-1.3 2-0.8 0.9-1.9 1.3-1.2 0.4-2.7 0.4-1.3 0-2.5-0.4-1.1-0.4-2-1.3-0.8-0.8-1.3-2-0.5-1.2-0.5-2.8 0-2.1 0.8-3.6 0.8-1.4 2.2-2.2 1.4-0.7 3.4-0.7 1.8 0 3.2 0.7 1.4 0.8 2.2 2.2 0.8 1.5 0.8 3.6zm-8.1 0q0 1.1 0.2 1.8 0.1 0.7 0.6 1.1 0.4 0.4 1.1 0.4 0.6 0 1-0.4 0.4-0.4 0.6-1.1 0.2-0.7 0.2-1.8 0-1.1-0.2-1.8-0.2-0.7-0.6-1.1-0.4-0.4-1.1-0.4-1 0-1.4 0.9-0.4 0.8-0.4 2.4z"/>
			</g>
		</g>
	</g>
	<g id="Layer">
		<g id="Layer">
			<g id="Layer">
				<path id="Layer" fill-rule="evenodd" class="s6" d="m221.7 292.9q0 1.6-0.5 2.8-0.4 1.2-1.2 2-0.9 0.9-2 1.3-1.2 0.4-2.7 0.4-1.3 0-2.5-0.4-1.1-0.4-2-1.3-0.8-0.8-1.3-2-0.4-1.2-0.4-2.8 0-2.1 0.7-3.6 0.8-1.4 2.2-2.2 1.4-0.7 3.4-0.7 1.8 0 3.2 0.7 1.4 0.8 2.2 2.2 0.9 1.5 0.9 3.6zm-8.2 0q0 1.1 0.2 1.8 0.2 0.7 0.6 1.1 0.4 0.4 1.1 0.4 0.7 0 1.1-0.4 0.4-0.4 0.5-1.1 0.2-0.7 0.2-1.8 0-1.1-0.2-1.8-0.1-0.7-0.5-1.1-0.5-0.4-1.1-0.4-1 0-1.5 0.9-0.4 0.8-0.4 2.4z"/>
			</g>
		</g>
	</g>
	<g id="Layer">
		<g id="Layer">
			<g id="Layer">
				<path id="Layer" class="s6" d="m228.5 299.2h-4.4v-17.3h4.4z"/>
			</g>
		</g>
	</g>
	<g id="Layer">
		<g id="Layer">
			<g id="Layer">
				<path id="Layer" class="s6" d="m240.9 295.3q0 1.2-0.6 2.2-0.5 0.9-1.7 1.4-1.2 0.5-3.1 0.5-1.3 0-2.4-0.1-1-0.1-2.1-0.6v-3.5q1.2 0.6 2.4 0.8 1.2 0.3 2 0.3 0.7 0 1-0.2 0.4-0.1 0.4-0.5 0-0.2-0.3-0.4-0.2-0.2-0.8-0.5-0.6-0.2-1.6-0.7-1.1-0.4-1.8-0.9-0.7-0.5-1-1.2-0.4-0.8-0.4-1.8 0-1.8 1.5-2.8 1.4-0.9 3.7-0.9 1.3 0 2.4 0.3 1.1 0.2 2.3 0.8l-1.2 2.8q-1-0.5-1.9-0.7-1-0.3-1.5-0.3-0.5 0-0.8 0.2-0.3 0.1-0.3 0.3 0 0.3 0.2 0.5 0.2 0.1 0.7 0.4 0.6 0.2 1.6 0.6 1.1 0.5 1.8 1 0.8 0.5 1.1 1.2 0.4 0.7 0.4 1.8z"/>
			</g>
		</g>
	</g>
	<g id="Layer">
		<g id="Layer">
			<g id="Layer">
				<path id="Layer" class="s6" d="m59.2 318.1v12.6h-4.4v-12.6zm-2.1-5.1q0.9 0 1.6 0.4 0.7 0.4 0.7 1.6 0 1.1-0.7 1.5-0.7 0.4-1.6 0.4-1 0-1.7-0.4-0.6-0.4-0.6-1.5 0-1.2 0.6-1.6 0.7-0.4 1.7-0.4z"/>
			</g>
		</g>
	</g>
	<g id="Layer">
		<g id="Layer">
			<g id="Layer">
				<path id="Layer" class="s6" d="m70.1 317.9q2 0 3.2 1.1 1.2 1.1 1.2 3.5v8.2h-4.3v-6.9q0-1.2-0.4-1.9-0.4-0.6-1.2-0.6-1.2 0-1.6 1-0.4 1-0.4 2.9v5.5h-4.4v-12.6h3.3l0.6 1.7h0.2q0.3-0.6 0.9-1.1 0.6-0.4 1.3-0.6 0.7-0.2 1.6-0.2z"/>
			</g>
		</g>
	</g>
	<g id="Layer">
		<g id="Layer">
			<g id="Layer">
			</g>
		</g>
	</g>
	<g id="Layer">
		<g id="Layer">
			<g id="Layer">
				<path id="Layer" class="s6" d="m97.5 330.7h-4.9l-3.2-6.2-1.3 0.8v5.4h-4.4v-16.3h4.4v7.1q0.2-0.5 0.6-1 0.4-0.6 0.7-1.1l3.4-5h4.8l-5.1 7.3z"/>
			</g>
		</g>
	</g>
	<g id="Layer">
		<g id="Layer">
			<g id="Layer">
				<path id="Layer" class="s6" d="m98 326.3v-3.4h6.3v3.4z"/>
			</g>
		</g>
	</g>
	<g id="Layer">
		<g id="Layer">
			<g id="Layer">
				<path id="Layer" class="s6" d="m115.3 330.7h-4.5v-8q0-0.2 0-0.8 0-0.7 0-1.4 0-0.7 0.1-1.3-0.3 0.4-0.6 0.6-0.2 0.3-0.5 0.5l-1.8 1.5-2.3-2.8 5.6-4.6h4z"/>
			</g>
		</g>
	</g>
	<g id="Layer">
		<g id="Layer">
			<g id="Layer">
				<path id="Layer" class="s6" d="m130.6 330.7h-11.8v-2.9l4-4q1.2-1.3 1.9-2.1 0.7-0.7 1-1.3 0.2-0.5 0.2-1.1 0-0.8-0.4-1.1-0.5-0.3-1.1-0.3-0.8 0-1.6 0.4-0.8 0.5-1.7 1.3l-2.5-2.8q0.8-0.6 1.6-1.2 0.8-0.6 1.9-1 1.2-0.4 2.8-0.4 1.6 0 2.9 0.6 1.2 0.6 1.8 1.6 0.7 1 0.7 2.3 0 1.4-0.5 2.5-0.5 1.1-1.6 2.2-1 1.1-2.5 2.5l-1.2 1.1v0.1h6.1z"/>
			</g>
		</g>
	</g>
	<g id="Layer">
		<g id="Layer">
			<g id="Layer">
			</g>
		</g>
	</g>
	<g id="Layer">
		<g id="Layer">
			<g id="Layer">
				<path id="Layer" class="s6" d="m149.8 325.8q0 1.3-0.7 2.5-0.6 1.2-2 1.9-1.5 0.7-3.7 0.7-1.1 0-1.9-0.1-0.9-0.1-1.6-0.3-0.7-0.2-1.5-0.6v-3.9q1.3 0.7 2.7 1 1.3 0.4 2.4 0.4 0.7 0 1.1-0.2 0.4-0.1 0.6-0.4 0.2-0.3 0.2-0.6 0-0.5-0.3-0.8-0.3-0.3-0.9-0.6-0.7-0.3-1.7-0.8-0.9-0.4-1.7-0.8-0.7-0.5-1.2-1.1-0.5-0.5-0.8-1.3-0.3-0.8-0.3-1.8 0-1.6 0.8-2.7 0.7-1 2.1-1.6 1.4-0.5 3.2-0.5 1.6 0 2.9 0.4 1.3 0.3 2.3 0.8l-1.4 3.4q-1-0.5-2-0.8-1-0.3-1.9-0.3-0.6 0-0.9 0.2-0.4 0.1-0.5 0.3-0.2 0.3-0.2 0.6 0 0.4 0.3 0.7 0.3 0.2 0.9 0.6 0.7 0.4 2 0.9 1.1 0.5 2 1.2 0.8 0.6 1.2 1.4 0.5 0.9 0.5 2.2z"/>
			</g>
		</g>
	</g>
	<g id="Layer">
		<g id="Layer">
			<g id="Layer">
				<path id="Layer" class="s6" d="m157.8 330.9q-1.9 0-3.3-0.6-1.5-0.7-2.2-2.1-0.8-1.5-0.8-3.7 0-2.3 0.9-3.8 0.8-1.4 2.3-2.1 1.5-0.7 3.4-0.7 1.2 0 2.2 0.2 1.1 0.3 2 0.7l-1.3 3.3q-0.8-0.4-1.5-0.6-0.6-0.2-1.4-0.2-0.6 0-1.1 0.3-0.5 0.4-0.8 1.1-0.3 0.7-0.3 1.8 0 1 0.3 1.7 0.3 0.7 0.8 1 0.5 0.3 1.2 0.3 0.9 0 1.8-0.3 1-0.3 1.8-0.8v3.4q-0.7 0.5-1.7 0.8-1 0.3-2.3 0.3z"/>
			</g>
		</g>
	</g>
	<g id="Layer">
		<g id="Layer">
			<g id="Layer">
				<path id="Layer" class="s6" d="m168.7 313.4v2.5q0 1.4-0.1 2.3 0 1-0.1 1.5h0.2q0.4-0.7 0.9-1.1 0.6-0.4 1.2-0.5 0.6-0.2 1.4-0.2 1.2 0 2.2 0.5 1 0.4 1.6 1.5 0.6 1 0.6 2.6v8.2h-4.3v-6.9q0-1.2-0.4-1.9-0.4-0.6-1.1-0.6-0.8 0-1.3 0.4-0.4 0.5-0.6 1.4-0.2 0.8-0.2 2.1v5.5h-4.4v-17.3z"/>
			</g>
		</g>
	</g>
	<g id="Layer">
		<g id="Layer">
			<g id="Layer">
				<path id="Layer" fill-rule="evenodd" class="s6" d="m191.6 324.4q0 1.6-0.4 2.8-0.4 1.2-1.3 2-0.8 0.9-2 1.3-1.1 0.4-2.6 0.4-1.4 0-2.5-0.4-1.1-0.4-2-1.3-0.8-0.8-1.3-2-0.5-1.2-0.5-2.8 0-2.1 0.8-3.6 0.8-1.4 2.2-2.2 1.4-0.7 3.4-0.7 1.8 0 3.2 0.7 1.4 0.8 2.2 2.2 0.8 1.5 0.8 3.6zm-8.1 0q0 1.1 0.1 1.8 0.2 0.7 0.7 1.1 0.4 0.4 1.1 0.4 0.6 0 1-0.4 0.4-0.4 0.6-1.1 0.2-0.7 0.2-1.8 0-1.1-0.2-1.8-0.2-0.7-0.6-1.1-0.4-0.4-1.1-0.4-1 0-1.4 0.9-0.4 0.8-0.4 2.4z"/>
			</g>
		</g>
	</g>
	<g id="Layer">
		<g id="Layer">
			<g id="Layer">
				<path id="Layer" fill-rule="evenodd" class="s6" d="m206.1 324.4q0 1.6-0.4 2.8-0.4 1.2-1.3 2-0.8 0.9-1.9 1.3-1.2 0.4-2.7 0.4-1.3 0-2.5-0.4-1.1-0.4-2-1.3-0.8-0.8-1.3-2-0.4-1.2-0.4-2.8 0-2.1 0.7-3.6 0.8-1.4 2.2-2.2 1.4-0.7 3.4-0.7 1.8 0 3.2 0.7 1.4 0.8 2.2 2.2 0.8 1.5 0.8 3.6zm-8.1 0q0 1.1 0.2 1.8 0.2 0.7 0.6 1.1 0.4 0.4 1.1 0.4 0.7 0 1-0.4 0.4-0.4 0.6-1.1 0.2-0.7 0.2-1.8 0-1.1-0.2-1.8-0.2-0.7-0.6-1.1-0.4-0.4-1-0.4-1.1 0-1.5 0.9-0.4 0.8-0.4 2.4z"/>
			</g>
		</g>
	</g>
	<g id="Layer">
		<g id="Layer">
			<g id="Layer">
				<path id="Layer" class="s6" d="m213 330.7h-4.4v-17.3h4.4z"/>
			</g>
		</g>
	</g>
	<g id="Layer">
		<g id="Layer">
			<g id="Layer">
				<path id="Layer" class="s6" d="m225.4 326.8q0 1.2-0.6 2.2-0.5 0.9-1.7 1.4-1.2 0.5-3.1 0.5-1.3 0-2.4-0.1-1-0.1-2.1-0.6v-3.5q1.2 0.6 2.4 0.8 1.2 0.3 1.9 0.3 0.8 0 1.1-0.2 0.3-0.1 0.3-0.5 0-0.2-0.2-0.4-0.2-0.2-0.8-0.5-0.6-0.2-1.6-0.7-1.1-0.4-1.8-0.9-0.7-0.5-1-1.2-0.4-0.8-0.4-1.8 0-1.8 1.5-2.8 1.4-0.9 3.7-0.9 1.3 0 2.4 0.3 1.1 0.2 2.3 0.8l-1.2 2.8q-1-0.5-1.9-0.7-1-0.3-1.5-0.3-0.5 0-0.8 0.2-0.3 0.1-0.3 0.3 0 0.3 0.2 0.5 0.2 0.1 0.7 0.4 0.6 0.2 1.6 0.6 1.1 0.5 1.8 1 0.8 0.5 1.1 1.2 0.4 0.7 0.4 1.8z"/>
			</g>
		</g>
	</g>
</svg>